<svg width="328" height="276" viewBox="0 0 328 276" fill="none" xmlns="http://www.w3.org/2000/svg">
<rect width="328" height="276" rx="5" fill="white" fill-opacity="0.05"/>
<rect x="40" y="32" width="50" height="50" rx="3" fill="white" fill-opacity="0.03"/>
<path d="M74 60.9999V52.9999C73.9996 52.6492 73.9071 52.3047 73.7315 52.0011C73.556 51.6974 73.3037 51.4453 73 51.2699L66 47.2699C65.696 47.0944 65.3511 47.002 65 47.002C64.6489 47.002 64.304 47.0944 64 47.2699L57 51.2699C56.6963 51.4453 56.444 51.6974 56.2685 52.0011C56.0929 52.3047 56.0004 52.6492 56 52.9999V60.9999C56.0004 61.3506 56.0929 61.6951 56.2685 61.9987C56.444 62.3024 56.6963 62.5545 57 62.7299L64 66.7299C64.304 66.9054 64.6489 66.9979 65 66.9979C65.3511 66.9979 65.696 66.9054 66 66.7299L73 62.7299C73.3037 62.5545 73.556 62.3024 73.7315 61.9987C73.9071 61.6951 73.9996 61.3506 74 60.9999Z" stroke="white" stroke-width="2" stroke-linecap="round" stroke-linejoin="round"/>
<path d="M56.27 51.96L65 57.01L73.73 51.96" stroke="white" stroke-width="2" stroke-linecap="round" stroke-linejoin="round"/>
<path d="M65 67.08V57" stroke="white" stroke-width="2" stroke-linecap="round" stroke-linejoin="round"/>
<path d="M49.198 126.436C49.198 127.192 49.012 127.852 48.64 128.416C48.268 128.98 47.728 129.418 47.02 129.73C46.324 130.03 45.472 130.18 44.464 130.18C44.02 130.18 43.582 130.15 43.15 130.09C42.73 130.03 42.322 129.946 41.926 129.838C41.542 129.718 41.176 129.574 40.828 129.406V126.868C41.44 127.132 42.07 127.378 42.718 127.606C43.378 127.822 44.032 127.93 44.68 127.93C45.124 127.93 45.478 127.87 45.742 127.75C46.018 127.63 46.216 127.468 46.336 127.264C46.468 127.06 46.534 126.826 46.534 126.562C46.534 126.238 46.42 125.962 46.192 125.734C45.976 125.506 45.682 125.296 45.31 125.104C44.938 124.9 44.512 124.684 44.032 124.456C43.732 124.312 43.408 124.144 43.06 123.952C42.712 123.748 42.376 123.502 42.052 123.214C41.74 122.914 41.482 122.554 41.278 122.134C41.074 121.714 40.972 121.21 40.972 120.622C40.972 119.854 41.146 119.2 41.494 118.66C41.854 118.108 42.358 117.688 43.006 117.4C43.666 117.112 44.44 116.968 45.328 116.968C46 116.968 46.636 117.046 47.236 117.202C47.848 117.358 48.484 117.58 49.144 117.868L48.262 119.992C47.674 119.752 47.146 119.566 46.678 119.434C46.21 119.302 45.73 119.236 45.238 119.236C44.902 119.236 44.614 119.29 44.374 119.398C44.134 119.506 43.948 119.656 43.816 119.848C43.696 120.04 43.636 120.268 43.636 120.532C43.636 120.832 43.726 121.09 43.906 121.306C44.086 121.51 44.356 121.708 44.716 121.9C45.076 122.092 45.526 122.32 46.066 122.584C46.726 122.896 47.284 123.22 47.74 123.556C48.208 123.892 48.568 124.288 48.82 124.744C49.072 125.2 49.198 125.764 49.198 126.436ZM54.0001 119.11C54.0001 119.59 53.9821 120.052 53.9461 120.496C53.9221 120.94 53.8981 121.252 53.8741 121.432H54.0181C54.2341 121.096 54.4861 120.826 54.7741 120.622C55.0621 120.406 55.3801 120.25 55.7281 120.154C56.0881 120.046 56.4661 119.992 56.8621 119.992C57.5701 119.992 58.1881 120.118 58.7161 120.37C59.2441 120.622 59.6521 121.012 59.9401 121.54C60.2401 122.068 60.3901 122.752 60.3901 123.592V130H57.7081V124.258C57.7081 123.55 57.5761 123.022 57.3121 122.674C57.0601 122.314 56.6641 122.134 56.1241 122.134C55.5841 122.134 55.1581 122.26 54.8461 122.512C54.5461 122.764 54.3301 123.13 54.1981 123.61C54.0661 124.09 54.0001 124.678 54.0001 125.374V130H51.3181V116.32H54.0001V119.11ZM65.8301 120.172V130H63.1481V120.172H65.8301ZM64.4981 116.32C64.8941 116.32 65.2361 116.416 65.5241 116.608C65.8121 116.788 65.9561 117.13 65.9561 117.634C65.9561 118.126 65.8121 118.468 65.5241 118.66C65.2361 118.852 64.8941 118.948 64.4981 118.948C64.0901 118.948 63.7421 118.852 63.4541 118.66C63.1781 118.468 63.0401 118.126 63.0401 117.634C63.0401 117.13 63.1781 116.788 63.4541 116.608C63.7421 116.416 64.0901 116.32 64.4981 116.32ZM74.1045 119.992C75.2085 119.992 76.1025 120.424 76.7865 121.288C77.4705 122.14 77.8125 123.4 77.8125 125.068C77.8125 126.184 77.6505 127.126 77.3265 127.894C77.0025 128.65 76.5585 129.22 75.9945 129.604C75.4305 129.988 74.7765 130.18 74.0325 130.18C73.5645 130.18 73.1565 130.12 72.8085 130C72.4725 129.88 72.1845 129.724 71.9445 129.532C71.7045 129.34 71.4945 129.136 71.3145 128.92H71.1705C71.2185 129.148 71.2545 129.388 71.2785 129.64C71.3025 129.88 71.3145 130.12 71.3145 130.36V134.32H68.6325V120.172H70.8105L71.1885 121.45H71.3145C71.4945 121.186 71.7105 120.946 71.9625 120.73C72.2145 120.502 72.5145 120.322 72.8625 120.19C73.2225 120.058 73.6365 119.992 74.1045 119.992ZM73.2405 122.134C72.7725 122.134 72.4005 122.23 72.1245 122.422C71.8485 122.614 71.6445 122.908 71.5125 123.304C71.3925 123.688 71.3265 124.174 71.3145 124.762V125.05C71.3145 125.686 71.3745 126.226 71.4945 126.67C71.6145 127.102 71.8185 127.432 72.1065 127.66C72.3945 127.888 72.7845 128.002 73.2765 128.002C73.6845 128.002 74.0205 127.888 74.2845 127.66C74.5485 127.432 74.7465 127.096 74.8785 126.652C75.0105 126.208 75.0765 125.668 75.0765 125.032C75.0765 124.072 74.9265 123.352 74.6265 122.872C74.3385 122.38 73.8765 122.134 73.2405 122.134Z" fill="white"/>
<path d="M48.64 166L47.424 162.704H43.008L41.792 166H40L44.336 154.528H46.128L50.448 166H48.64ZM45.792 157.984C45.76 157.867 45.7013 157.691 45.616 157.456C45.5413 157.211 45.4667 156.965 45.392 156.72C45.3173 156.464 45.2587 156.256 45.216 156.096C45.1627 156.309 45.0987 156.544 45.024 156.8C44.96 157.045 44.896 157.275 44.832 157.488C44.768 157.691 44.7147 157.856 44.672 157.984L43.52 161.2H46.944L45.792 157.984ZM56.0048 158.672H53.8768V166H52.1808V158.672H50.7248V157.872L52.1808 157.344V156.8C52.1808 156.064 52.2928 155.477 52.5168 155.04C52.7514 154.592 53.0821 154.267 53.5088 154.064C53.9354 153.861 54.4528 153.76 55.0608 153.76C55.4341 153.76 55.7754 153.792 56.0848 153.856C56.3941 153.92 56.6554 153.989 56.8688 154.064L56.4368 155.36C56.2661 155.307 56.0688 155.259 55.8448 155.216C55.6208 155.163 55.3861 155.136 55.1408 155.136C54.7141 155.136 54.3941 155.275 54.1808 155.552C53.9781 155.829 53.8768 156.251 53.8768 156.816V157.376H56.0048V158.672ZM60.6195 164.784C60.8435 164.784 61.0728 164.763 61.3075 164.72C61.5422 164.677 61.7448 164.629 61.9155 164.576V165.856C61.7342 165.941 61.4888 166.011 61.1795 166.064C60.8702 166.128 60.5608 166.16 60.2515 166.16C59.7822 166.16 59.3502 166.08 58.9555 165.92C58.5715 165.76 58.2622 165.483 58.0275 165.088C57.7928 164.693 57.6755 164.144 57.6755 163.44V158.672H56.4755V157.904L57.7395 157.264L58.3315 155.44H59.3715V157.376H61.8355V158.672H59.3715V163.408C59.3715 163.877 59.4835 164.224 59.7075 164.448C59.9422 164.672 60.2462 164.784 60.6195 164.784ZM67.0325 157.216C67.7898 157.216 68.4405 157.376 68.9845 157.696C69.5285 158.005 69.9445 158.453 70.2325 159.04C70.5312 159.627 70.6805 160.32 70.6805 161.12V162.048H64.8885C64.9098 162.933 65.1392 163.611 65.5765 164.08C66.0245 164.549 66.6485 164.784 67.4485 164.784C68.0032 164.784 68.4938 164.736 68.9205 164.64C69.3578 164.533 69.8058 164.379 70.2645 164.176V165.584C69.8378 165.776 69.4005 165.92 68.9525 166.016C68.5152 166.112 67.9925 166.16 67.3845 166.16C66.5525 166.16 65.8165 165.995 65.1765 165.664C64.5365 165.333 64.0352 164.843 63.6725 164.192C63.3205 163.531 63.1445 162.72 63.1445 161.76C63.1445 160.789 63.3045 159.968 63.6245 159.296C63.9552 158.624 64.4085 158.112 64.9845 157.76C65.5712 157.397 66.2538 157.216 67.0325 157.216ZM67.0325 158.528C66.4245 158.528 65.9338 158.725 65.5605 159.12C65.1978 159.515 64.9845 160.075 64.9205 160.8H68.9845C68.9845 160.352 68.9152 159.957 68.7765 159.616C68.6378 159.275 68.4245 159.008 68.1365 158.816C67.8485 158.624 67.4805 158.528 67.0325 158.528ZM77.0528 157.216C77.2021 157.216 77.3674 157.227 77.5488 157.248C77.7301 157.259 77.8794 157.275 77.9968 157.296L77.8208 158.88C77.7034 158.848 77.5648 158.821 77.4048 158.8C77.2448 158.779 77.0954 158.768 76.9568 158.768C76.6368 158.768 76.3274 158.832 76.0288 158.96C75.7408 159.077 75.4794 159.253 75.2448 159.488C75.0101 159.712 74.8234 159.989 74.6848 160.32C74.5568 160.651 74.4928 161.029 74.4928 161.456V166H72.7968V157.376H74.1408L74.3648 158.912H74.4288C74.6101 158.603 74.8288 158.32 75.0848 158.064C75.3408 157.808 75.6341 157.605 75.9648 157.456C76.2954 157.296 76.6581 157.216 77.0528 157.216ZM86.8539 164.784C87.0779 164.784 87.3072 164.763 87.5419 164.72C87.7765 164.677 87.9792 164.629 88.1499 164.576V165.856C87.9685 165.941 87.7232 166.011 87.4139 166.064C87.1045 166.128 86.7952 166.16 86.4859 166.16C86.0165 166.16 85.5845 166.08 85.1899 165.92C84.8059 165.76 84.4965 165.483 84.2619 165.088C84.0272 164.693 83.9099 164.144 83.9099 163.44V158.672H82.7099V157.904L83.9739 157.264L84.5659 155.44H85.6059V157.376H88.0699V158.672H85.6059V163.408C85.6059 163.877 85.7179 164.224 85.9419 164.448C86.1765 164.672 86.4805 164.784 86.8539 164.784ZM91.5709 157.088C91.5709 157.355 91.5602 157.621 91.5389 157.888C91.5175 158.155 91.4962 158.373 91.4749 158.544H91.5869C91.7682 158.245 91.9922 158 92.2589 157.808C92.5362 157.616 92.8402 157.472 93.1709 157.376C93.5122 157.28 93.8589 157.232 94.2109 157.232C94.8935 157.232 95.4642 157.344 95.9229 157.568C96.3922 157.781 96.7442 158.123 96.9789 158.592C97.2242 159.051 97.3469 159.648 97.3469 160.384V166H95.6669V160.624C95.6669 159.952 95.5229 159.451 95.2349 159.12C94.9575 158.779 94.5095 158.608 93.8909 158.608C93.3042 158.608 92.8402 158.725 92.4989 158.96C92.1682 159.195 91.9282 159.541 91.7789 160C91.6402 160.448 91.5709 161.003 91.5709 161.664V166H89.8749V153.84H91.5709V157.088ZM103.345 157.216C104.102 157.216 104.753 157.376 105.297 157.696C105.841 158.005 106.257 158.453 106.545 159.04C106.844 159.627 106.993 160.32 106.993 161.12V162.048H101.201C101.222 162.933 101.452 163.611 101.889 164.08C102.337 164.549 102.961 164.784 103.761 164.784C104.316 164.784 104.806 164.736 105.233 164.64C105.67 164.533 106.118 164.379 106.577 164.176V165.584C106.15 165.776 105.713 165.92 105.265 166.016C104.828 166.112 104.305 166.16 103.697 166.16C102.865 166.16 102.129 165.995 101.489 165.664C100.849 165.333 100.348 164.843 99.985 164.192C99.633 163.531 99.457 162.72 99.457 161.76C99.457 160.789 99.617 159.968 99.937 159.296C100.268 158.624 100.721 158.112 101.297 157.76C101.884 157.397 102.566 157.216 103.345 157.216ZM103.345 158.528C102.737 158.528 102.246 158.725 101.873 159.12C101.51 159.515 101.297 160.075 101.233 160.8H105.297C105.297 160.352 105.228 159.957 105.089 159.616C104.95 159.275 104.737 159.008 104.449 158.816C104.161 158.624 103.793 158.528 103.345 158.528ZM119.09 161.68C119.036 161.467 118.972 161.232 118.898 160.976C118.834 160.72 118.77 160.464 118.706 160.208C118.642 159.941 118.583 159.696 118.53 159.472C118.476 159.248 118.434 159.072 118.402 158.944H118.338C118.316 159.072 118.279 159.248 118.226 159.472C118.183 159.696 118.13 159.941 118.066 160.208C118.002 160.464 117.938 160.725 117.874 160.992C117.81 161.248 117.74 161.483 117.666 161.696L116.386 165.984H114.498L112.114 157.36H113.842L114.962 161.728C115.047 162.027 115.122 162.341 115.186 162.672C115.26 163.003 115.324 163.323 115.378 163.632C115.442 163.931 115.484 164.181 115.506 164.384H115.57C115.591 164.245 115.623 164.075 115.666 163.872C115.708 163.659 115.751 163.44 115.794 163.216C115.847 162.981 115.895 162.757 115.938 162.544C115.991 162.331 116.044 162.155 116.098 162.016L117.474 157.36H119.33L120.674 162.016C120.738 162.229 120.807 162.485 120.882 162.784C120.956 163.072 121.02 163.36 121.074 163.648C121.138 163.925 121.18 164.165 121.202 164.368H121.266C121.287 164.187 121.324 163.952 121.378 163.664C121.431 163.365 121.495 163.045 121.57 162.704C121.655 162.363 121.735 162.037 121.81 161.728L122.962 157.36H124.674L122.258 165.984H120.322L119.09 161.68ZM133.772 161.68C133.772 162.395 133.676 163.029 133.484 163.584C133.292 164.139 133.02 164.608 132.668 164.992C132.316 165.376 131.889 165.669 131.388 165.872C130.886 166.064 130.321 166.16 129.692 166.16C129.116 166.16 128.582 166.064 128.092 165.872C127.601 165.669 127.174 165.376 126.812 164.992C126.46 164.608 126.182 164.139 125.98 163.584C125.777 163.029 125.676 162.389 125.676 161.664C125.676 160.715 125.836 159.909 126.156 159.248C126.486 158.587 126.956 158.085 127.564 157.744C128.182 157.392 128.908 157.216 129.74 157.216C130.529 157.216 131.222 157.392 131.82 157.744C132.428 158.085 132.902 158.587 133.244 159.248C133.596 159.909 133.772 160.72 133.772 161.68ZM127.42 161.68C127.42 162.32 127.5 162.875 127.66 163.344C127.82 163.803 128.07 164.155 128.412 164.4C128.753 164.645 129.19 164.768 129.724 164.768C130.257 164.768 130.694 164.645 131.036 164.4C131.377 164.155 131.628 163.803 131.788 163.344C131.948 162.875 132.028 162.32 132.028 161.68C132.028 161.019 131.942 160.464 131.772 160.016C131.612 159.568 131.361 159.227 131.02 158.992C130.689 158.747 130.252 158.624 129.708 158.624C128.908 158.624 128.326 158.891 127.964 159.424C127.601 159.957 127.42 160.709 127.42 161.68ZM140.178 157.216C140.327 157.216 140.492 157.227 140.674 157.248C140.855 157.259 141.004 157.275 141.122 157.296L140.946 158.88C140.828 158.848 140.69 158.821 140.53 158.8C140.37 158.779 140.22 158.768 140.082 158.768C139.762 158.768 139.452 158.832 139.154 158.96C138.866 159.077 138.604 159.253 138.37 159.488C138.135 159.712 137.948 159.989 137.81 160.32C137.682 160.651 137.618 161.029 137.618 161.456V166H135.922V157.376H137.266L137.49 158.912H137.554C137.735 158.603 137.954 158.32 138.21 158.064C138.466 157.808 138.759 157.605 139.09 157.456C139.42 157.296 139.783 157.216 140.178 157.216ZM144.399 159.92C144.399 160.144 144.388 160.4 144.367 160.688C144.356 160.976 144.34 161.243 144.319 161.488H144.367C144.452 161.381 144.553 161.253 144.671 161.104C144.799 160.944 144.927 160.784 145.055 160.624C145.183 160.464 145.3 160.325 145.407 160.208L148.047 157.376H150.015L146.543 161.072L150.239 166H148.239L145.391 162.144L144.399 162.976V166H142.719V153.84H144.399V159.92ZM157.508 157.376V166H155.812V157.376H157.508ZM156.676 154.096C156.932 154.096 157.156 154.171 157.348 154.32C157.54 154.469 157.636 154.72 157.636 155.072C157.636 155.413 157.54 155.664 157.348 155.824C157.156 155.973 156.932 156.048 156.676 156.048C156.399 156.048 156.164 155.973 155.972 155.824C155.791 155.664 155.7 155.413 155.7 155.072C155.7 154.72 155.791 154.469 155.972 154.32C156.164 154.171 156.399 154.096 156.676 154.096ZM165.9 163.568C165.9 164.133 165.761 164.608 165.484 164.992C165.206 165.376 164.806 165.669 164.284 165.872C163.761 166.064 163.132 166.16 162.396 166.16C161.788 166.16 161.265 166.112 160.828 166.016C160.401 165.931 160.006 165.803 159.644 165.632V164.144C160.028 164.325 160.47 164.491 160.972 164.64C161.473 164.779 161.964 164.848 162.444 164.848C163.084 164.848 163.542 164.747 163.82 164.544C164.108 164.341 164.252 164.069 164.252 163.728C164.252 163.536 164.198 163.365 164.092 163.216C163.985 163.056 163.782 162.896 163.484 162.736C163.196 162.565 162.769 162.373 162.204 162.16C161.66 161.936 161.196 161.717 160.812 161.504C160.428 161.28 160.134 161.019 159.932 160.72C159.729 160.411 159.628 160.016 159.628 159.536C159.628 158.789 159.926 158.219 160.524 157.824C161.132 157.419 161.932 157.216 162.924 157.216C163.446 157.216 163.937 157.269 164.396 157.376C164.865 157.472 165.318 157.621 165.756 157.824L165.196 159.12C164.95 159.003 164.694 158.907 164.428 158.832C164.172 158.747 163.91 158.677 163.644 158.624C163.388 158.571 163.121 158.544 162.844 158.544C162.332 158.544 161.942 158.624 161.676 158.784C161.409 158.944 161.276 159.168 161.276 159.456C161.276 159.659 161.334 159.835 161.452 159.984C161.58 160.133 161.798 160.283 162.108 160.432C162.417 160.581 162.838 160.763 163.372 160.976C163.905 161.179 164.358 161.387 164.732 161.6C165.116 161.813 165.404 162.075 165.596 162.384C165.798 162.693 165.9 163.088 165.9 163.568ZM175.55 166.16C174.761 166.16 174.067 166.005 173.47 165.696C172.873 165.387 172.409 164.907 172.078 164.256C171.747 163.595 171.582 162.757 171.582 161.744C171.582 160.677 171.758 159.813 172.11 159.152C172.473 158.491 172.958 158.005 173.566 157.696C174.185 157.376 174.889 157.216 175.678 157.216C176.158 157.216 176.606 157.269 177.022 157.376C177.449 157.472 177.801 157.584 178.078 157.712L177.566 159.088C177.267 158.971 176.947 158.869 176.606 158.784C176.275 158.699 175.961 158.656 175.662 158.656C175.129 158.656 174.686 158.773 174.334 159.008C173.993 159.232 173.737 159.573 173.566 160.032C173.406 160.48 173.326 161.045 173.326 161.728C173.326 162.379 173.411 162.928 173.582 163.376C173.753 163.824 174.003 164.165 174.334 164.4C174.675 164.624 175.097 164.736 175.598 164.736C176.078 164.736 176.499 164.683 176.862 164.576C177.225 164.469 177.566 164.331 177.886 164.16V165.632C177.577 165.813 177.241 165.947 176.878 166.032C176.515 166.117 176.073 166.16 175.55 166.16ZM187.522 161.68C187.522 162.395 187.426 163.029 187.234 163.584C187.042 164.139 186.77 164.608 186.418 164.992C186.066 165.376 185.639 165.669 185.138 165.872C184.636 166.064 184.071 166.16 183.442 166.16C182.866 166.16 182.332 166.064 181.842 165.872C181.351 165.669 180.924 165.376 180.562 164.992C180.21 164.608 179.932 164.139 179.73 163.584C179.527 163.029 179.426 162.389 179.426 161.664C179.426 160.715 179.586 159.909 179.906 159.248C180.236 158.587 180.706 158.085 181.314 157.744C181.932 157.392 182.658 157.216 183.49 157.216C184.279 157.216 184.972 157.392 185.57 157.744C186.178 158.085 186.652 158.587 186.994 159.248C187.346 159.909 187.522 160.72 187.522 161.68ZM181.17 161.68C181.17 162.32 181.25 162.875 181.41 163.344C181.57 163.803 181.82 164.155 182.162 164.4C182.503 164.645 182.94 164.768 183.474 164.768C184.007 164.768 184.444 164.645 184.786 164.4C185.127 164.155 185.378 163.803 185.538 163.344C185.698 162.875 185.778 162.32 185.778 161.68C185.778 161.019 185.692 160.464 185.522 160.016C185.362 159.568 185.111 159.227 184.77 158.992C184.439 158.747 184.002 158.624 183.458 158.624C182.658 158.624 182.076 158.891 181.714 159.424C181.351 159.957 181.17 160.709 181.17 161.68ZM199.336 157.216C200.306 157.216 201.037 157.467 201.528 157.968C202.018 158.469 202.264 159.275 202.264 160.384V166H200.568V160.608C200.568 159.947 200.434 159.451 200.168 159.12C199.912 158.779 199.506 158.608 198.952 158.608C198.184 158.608 197.634 158.848 197.304 159.328C196.973 159.797 196.808 160.48 196.808 161.376V166H195.128V160.608C195.128 160.171 195.064 159.803 194.936 159.504C194.818 159.205 194.642 158.981 194.408 158.832C194.173 158.683 193.869 158.608 193.496 158.608C192.962 158.608 192.541 158.725 192.232 158.96C191.922 159.195 191.698 159.541 191.56 160C191.432 160.448 191.368 160.997 191.368 161.648V166H189.672V157.376H191.016L191.256 158.528H191.352C191.533 158.229 191.752 157.984 192.008 157.792C192.274 157.6 192.568 157.456 192.888 157.36C193.208 157.264 193.538 157.216 193.88 157.216C194.53 157.216 195.08 157.333 195.528 157.568C195.976 157.792 196.301 158.139 196.504 158.608H196.632C196.909 158.128 197.293 157.776 197.784 157.552C198.274 157.328 198.792 157.216 199.336 157.216ZM209.163 157.216C210.198 157.216 211.03 157.589 211.659 158.336C212.299 159.083 212.619 160.197 212.619 161.68C212.619 162.651 212.475 163.472 212.187 164.144C211.899 164.816 211.494 165.323 210.971 165.664C210.449 165.995 209.841 166.16 209.147 166.16C208.71 166.16 208.326 166.107 207.995 166C207.665 165.883 207.382 165.733 207.147 165.552C206.923 165.36 206.726 165.157 206.555 164.944H206.443C206.475 165.136 206.502 165.365 206.523 165.632C206.545 165.888 206.555 166.117 206.555 166.32V169.84H204.859V157.376H206.235L206.475 158.528H206.555C206.726 158.293 206.929 158.075 207.163 157.872C207.398 157.669 207.681 157.509 208.011 157.392C208.342 157.275 208.726 157.216 209.163 157.216ZM208.763 158.608C208.23 158.608 207.803 158.715 207.483 158.928C207.163 159.131 206.929 159.44 206.779 159.856C206.641 160.261 206.566 160.779 206.555 161.408V161.664C206.555 162.325 206.625 162.891 206.763 163.36C206.902 163.819 207.131 164.171 207.451 164.416C207.782 164.651 208.23 164.768 208.795 164.768C209.275 164.768 209.665 164.64 209.963 164.384C210.273 164.117 210.502 163.749 210.651 163.28C210.801 162.811 210.875 162.267 210.875 161.648C210.875 160.709 210.705 159.968 210.363 159.424C210.022 158.88 209.489 158.608 208.763 158.608ZM216.477 166H214.781V153.84H216.477V166ZM222.533 157.216C223.29 157.216 223.941 157.376 224.485 157.696C225.029 158.005 225.445 158.453 225.733 159.04C226.031 159.627 226.181 160.32 226.181 161.12V162.048H220.389C220.41 162.933 220.639 163.611 221.077 164.08C221.525 164.549 222.149 164.784 222.949 164.784C223.503 164.784 223.994 164.736 224.421 164.64C224.858 164.533 225.306 164.379 225.765 164.176V165.584C225.338 165.776 224.901 165.92 224.453 166.016C224.015 166.112 223.493 166.16 222.885 166.16C222.053 166.16 221.317 165.995 220.677 165.664C220.037 165.333 219.535 164.843 219.173 164.192C218.821 163.531 218.645 162.72 218.645 161.76C218.645 160.789 218.805 159.968 219.125 159.296C219.455 158.624 219.909 158.112 220.485 157.76C221.071 157.397 221.754 157.216 222.533 157.216ZM222.533 158.528C221.925 158.528 221.434 158.725 221.061 159.12C220.698 159.515 220.485 160.075 220.421 160.8H224.485C224.485 160.352 224.415 159.957 224.277 159.616C224.138 159.275 223.925 159.008 223.637 158.816C223.349 158.624 222.981 158.528 222.533 158.528ZM231.401 164.784C231.625 164.784 231.854 164.763 232.089 164.72C232.323 164.677 232.526 164.629 232.697 164.576V165.856C232.515 165.941 232.27 166.011 231.961 166.064C231.651 166.128 231.342 166.16 231.033 166.16C230.563 166.16 230.131 166.08 229.737 165.92C229.353 165.76 229.043 165.483 228.809 165.088C228.574 164.693 228.457 164.144 228.457 163.44V158.672H227.257V157.904L228.521 157.264L229.113 155.44H230.153V157.376H232.617V158.672H230.153V163.408C230.153 163.877 230.265 164.224 230.489 164.448C230.723 164.672 231.027 164.784 231.401 164.784ZM237.814 157.216C238.571 157.216 239.222 157.376 239.766 157.696C240.31 158.005 240.726 158.453 241.014 159.04C241.312 159.627 241.462 160.32 241.462 161.12V162.048H235.67C235.691 162.933 235.92 163.611 236.358 164.08C236.806 164.549 237.43 164.784 238.23 164.784C238.784 164.784 239.275 164.736 239.702 164.64C240.139 164.533 240.587 164.379 241.046 164.176V165.584C240.619 165.776 240.182 165.92 239.734 166.016C239.296 166.112 238.774 166.16 238.166 166.16C237.334 166.16 236.598 165.995 235.958 165.664C235.318 165.333 234.816 164.843 234.454 164.192C234.102 163.531 233.926 162.72 233.926 161.76C233.926 160.789 234.086 159.968 234.406 159.296C234.736 158.624 235.19 158.112 235.766 157.76C236.352 157.397 237.035 157.216 237.814 157.216ZM237.814 158.528C237.206 158.528 236.715 158.725 236.342 159.12C235.979 159.515 235.766 160.075 235.702 160.8H239.766C239.766 160.352 239.696 159.957 239.558 159.616C239.419 159.275 239.206 159.008 238.918 158.816C238.63 158.624 238.262 158.528 237.814 158.528ZM245.466 164.32C245.37 164.693 245.247 165.099 245.098 165.536C244.949 165.973 244.789 166.405 244.618 166.832C244.447 167.269 244.271 167.68 244.09 168.064H242.858C242.965 167.648 243.066 167.205 243.162 166.736C243.269 166.277 243.365 165.824 243.45 165.376C243.535 164.928 243.605 164.517 243.658 164.144H245.354L245.466 164.32ZM257.933 161.68C257.88 161.467 257.816 161.232 257.741 160.976C257.677 160.72 257.613 160.464 257.549 160.208C257.485 159.941 257.427 159.696 257.373 159.472C257.32 159.248 257.277 159.072 257.245 158.944H257.181C257.16 159.072 257.123 159.248 257.069 159.472C257.027 159.696 256.973 159.941 256.909 160.208C256.845 160.464 256.781 160.725 256.717 160.992C256.653 161.248 256.584 161.483 256.509 161.696L255.229 165.984H253.341L250.957 157.36H252.685L253.805 161.728C253.891 162.027 253.965 162.341 254.029 162.672C254.104 163.003 254.168 163.323 254.221 163.632C254.285 163.931 254.328 164.181 254.349 164.384H254.413C254.435 164.245 254.467 164.075 254.509 163.872C254.552 163.659 254.595 163.44 254.637 163.216C254.691 162.981 254.739 162.757 254.781 162.544C254.835 162.331 254.888 162.155 254.941 162.016L256.317 157.36H258.173L259.517 162.016C259.581 162.229 259.651 162.485 259.725 162.784C259.8 163.072 259.864 163.36 259.917 163.648C259.981 163.925 260.024 164.165 260.045 164.368H260.109C260.131 164.187 260.168 163.952 260.221 163.664C260.275 163.365 260.339 163.045 260.413 162.704C260.499 162.363 260.579 162.037 260.653 161.728L261.805 157.36H263.517L261.101 165.984H259.165L257.933 161.68ZM268.408 157.216C269.165 157.216 269.816 157.376 270.36 157.696C270.904 158.005 271.32 158.453 271.608 159.04C271.906 159.627 272.056 160.32 272.056 161.12V162.048H266.264C266.285 162.933 266.514 163.611 266.952 164.08C267.4 164.549 268.024 164.784 268.824 164.784C269.378 164.784 269.869 164.736 270.296 164.64C270.733 164.533 271.181 164.379 271.64 164.176V165.584C271.213 165.776 270.776 165.92 270.328 166.016C269.89 166.112 269.368 166.16 268.76 166.16C267.928 166.16 267.192 165.995 266.552 165.664C265.912 165.333 265.41 164.843 265.048 164.192C264.696 163.531 264.52 162.72 264.52 161.76C264.52 160.789 264.68 159.968 265 159.296C265.33 158.624 265.784 158.112 266.36 157.76C266.946 157.397 267.629 157.216 268.408 157.216ZM268.408 158.528C267.8 158.528 267.309 158.725 266.936 159.12C266.573 159.515 266.36 160.075 266.296 160.8H270.36C270.36 160.352 270.29 159.957 270.152 159.616C270.013 159.275 269.8 159.008 269.512 158.816C269.224 158.624 268.856 158.528 268.408 158.528ZM47.152 193.68C47.0987 193.467 47.0347 193.232 46.96 192.976C46.896 192.72 46.832 192.464 46.768 192.208C46.704 191.941 46.6453 191.696 46.592 191.472C46.5387 191.248 46.496 191.072 46.464 190.944H46.4C46.3787 191.072 46.3413 191.248 46.288 191.472C46.2453 191.696 46.192 191.941 46.128 192.208C46.064 192.464 46 192.725 45.936 192.992C45.872 193.248 45.8027 193.483 45.728 193.696L44.448 197.984H42.56L40.176 189.36H41.904L43.024 193.728C43.1093 194.027 43.184 194.341 43.248 194.672C43.3227 195.003 43.3867 195.323 43.44 195.632C43.504 195.931 43.5467 196.181 43.568 196.384H43.632C43.6533 196.245 43.6853 196.075 43.728 195.872C43.7707 195.659 43.8133 195.44 43.856 195.216C43.9093 194.981 43.9573 194.757 44 194.544C44.0533 194.331 44.1067 194.155 44.16 194.016L45.536 189.36H47.392L48.736 194.016C48.8 194.229 48.8693 194.485 48.944 194.784C49.0187 195.072 49.0827 195.36 49.136 195.648C49.2 195.925 49.2427 196.165 49.264 196.368H49.328C49.3493 196.187 49.3867 195.952 49.44 195.664C49.4933 195.365 49.5573 195.045 49.632 194.704C49.7173 194.363 49.7973 194.037 49.872 193.728L51.024 189.36H52.736L50.32 197.984H48.384L47.152 193.68ZM55.9303 189.376V198H54.2343V189.376H55.9303ZM55.0983 186.096C55.3543 186.096 55.5783 186.171 55.7703 186.32C55.9623 186.469 56.0583 186.72 56.0583 187.072C56.0583 187.413 55.9623 187.664 55.7703 187.824C55.5783 187.973 55.3543 188.048 55.0983 188.048C54.8209 188.048 54.5863 187.973 54.3943 187.824C54.2129 187.664 54.1223 187.413 54.1223 187.072C54.1223 186.72 54.2129 186.469 54.3943 186.32C54.5863 186.171 54.8209 186.096 55.0983 186.096ZM60.2896 198H58.5936V185.84H60.2896V198ZM64.649 198H62.953V185.84H64.649V198ZM77.1966 195.568C77.1966 196.133 77.058 196.608 76.7806 196.992C76.5033 197.376 76.1033 197.669 75.5806 197.872C75.058 198.064 74.4286 198.16 73.6926 198.16C73.0846 198.16 72.562 198.112 72.1246 198.016C71.698 197.931 71.3033 197.803 70.9406 197.632V196.144C71.3246 196.325 71.7673 196.491 72.2686 196.64C72.77 196.779 73.2606 196.848 73.7406 196.848C74.3806 196.848 74.8393 196.747 75.1166 196.544C75.4046 196.341 75.5486 196.069 75.5486 195.728C75.5486 195.536 75.4953 195.365 75.3886 195.216C75.282 195.056 75.0793 194.896 74.7806 194.736C74.4926 194.565 74.066 194.373 73.5006 194.16C72.9566 193.936 72.4926 193.717 72.1086 193.504C71.7246 193.28 71.4313 193.019 71.2286 192.72C71.026 192.411 70.9246 192.016 70.9246 191.536C70.9246 190.789 71.2233 190.219 71.8206 189.824C72.4286 189.419 73.2286 189.216 74.2206 189.216C74.7433 189.216 75.234 189.269 75.6926 189.376C76.162 189.472 76.6153 189.621 77.0526 189.824L76.4926 191.12C76.2473 191.003 75.9913 190.907 75.7246 190.832C75.4686 190.747 75.2073 190.677 74.9406 190.624C74.6846 190.571 74.418 190.544 74.1406 190.544C73.6286 190.544 73.2393 190.624 72.9726 190.784C72.706 190.944 72.5726 191.168 72.5726 191.456C72.5726 191.659 72.6313 191.835 72.7486 191.984C72.8766 192.133 73.0953 192.283 73.4046 192.432C73.714 192.581 74.1353 192.763 74.6686 192.976C75.202 193.179 75.6553 193.387 76.0286 193.6C76.4126 193.813 76.7006 194.075 76.8926 194.384C77.0953 194.693 77.1966 195.088 77.1966 195.568ZM82.6106 189.216C83.368 189.216 84.0186 189.376 84.5626 189.696C85.1066 190.005 85.5226 190.453 85.8106 191.04C86.1093 191.627 86.2586 192.32 86.2586 193.12V194.048H80.4666C80.488 194.933 80.7173 195.611 81.1546 196.08C81.6026 196.549 82.2266 196.784 83.0266 196.784C83.5813 196.784 84.072 196.736 84.4986 196.64C84.936 196.533 85.384 196.379 85.8426 196.176V197.584C85.416 197.776 84.9786 197.92 84.5306 198.016C84.0933 198.112 83.5706 198.16 82.9626 198.16C82.1306 198.16 81.3946 197.995 80.7546 197.664C80.1146 197.333 79.6133 196.843 79.2506 196.192C78.8986 195.531 78.7226 194.72 78.7226 193.76C78.7226 192.789 78.8826 191.968 79.2026 191.296C79.5333 190.624 79.9866 190.112 80.5626 189.76C81.1493 189.397 81.832 189.216 82.6106 189.216ZM82.6106 190.528C82.0026 190.528 81.512 190.725 81.1386 191.12C80.776 191.515 80.5626 192.075 80.4986 192.8H84.5626C84.5626 192.352 84.4933 191.957 84.3546 191.616C84.216 191.275 84.0026 191.008 83.7146 190.816C83.4266 190.624 83.0586 190.528 82.6106 190.528ZM92.7429 189.216C93.7455 189.216 94.5135 189.467 95.0469 189.968C95.5802 190.469 95.8469 191.275 95.8469 192.384V198H94.1669V192.624C94.1669 191.952 94.0229 191.451 93.7349 191.12C93.4575 190.779 93.0095 190.608 92.3909 190.608C91.5162 190.608 90.9082 190.869 90.5669 191.392C90.2362 191.915 90.0709 192.667 90.0709 193.648V198H88.3749V189.376H89.7189L89.9589 190.528H90.0549C90.2469 190.229 90.4815 189.984 90.7589 189.792C91.0362 189.6 91.3455 189.456 91.6869 189.36C92.0282 189.264 92.3802 189.216 92.7429 189.216ZM101.413 198.16C100.378 198.16 99.541 197.787 98.901 197.04C98.2717 196.293 97.957 195.184 97.957 193.712C97.957 192.229 98.277 191.109 98.917 190.352C99.557 189.595 100.4 189.216 101.445 189.216C101.882 189.216 102.261 189.275 102.581 189.392C102.912 189.499 103.194 189.648 103.429 189.84C103.674 190.032 103.882 190.245 104.053 190.48H104.149C104.128 190.331 104.101 190.117 104.069 189.84C104.037 189.552 104.021 189.296 104.021 189.072V185.84H105.717V198H104.389L104.101 196.848H104.021C103.861 197.093 103.658 197.317 103.413 197.52C103.178 197.712 102.896 197.867 102.565 197.984C102.234 198.101 101.85 198.16 101.413 198.16ZM101.813 196.768C102.645 196.768 103.232 196.539 103.573 196.08C103.914 195.611 104.085 194.912 104.085 193.984V193.728C104.085 192.715 103.92 191.941 103.589 191.408C103.269 190.875 102.672 190.608 101.797 190.608C101.104 190.608 100.581 190.891 100.229 191.456C99.877 192.011 99.701 192.773 99.701 193.744C99.701 194.715 99.877 195.461 100.229 195.984C100.581 196.507 101.109 196.768 101.813 196.768ZM115.635 196.784C115.859 196.784 116.088 196.763 116.323 196.72C116.558 196.677 116.76 196.629 116.931 196.576V197.856C116.75 197.941 116.504 198.011 116.195 198.064C115.886 198.128 115.576 198.16 115.267 198.16C114.798 198.16 114.366 198.08 113.971 197.92C113.587 197.76 113.278 197.483 113.043 197.088C112.808 196.693 112.691 196.144 112.691 195.44V190.672H111.491V189.904L112.755 189.264L113.347 187.44H114.387V189.376H116.851V190.672H114.387V195.408C114.387 195.877 114.499 196.224 114.723 196.448C114.958 196.672 115.262 196.784 115.635 196.784ZM120.352 189.088C120.352 189.355 120.341 189.621 120.32 189.888C120.299 190.155 120.277 190.373 120.256 190.544H120.368C120.549 190.245 120.773 190 121.04 189.808C121.317 189.616 121.621 189.472 121.952 189.376C122.293 189.28 122.64 189.232 122.992 189.232C123.675 189.232 124.245 189.344 124.704 189.568C125.173 189.781 125.525 190.123 125.76 190.592C126.005 191.051 126.128 191.648 126.128 192.384V198H124.448V192.624C124.448 191.952 124.304 191.451 124.016 191.12C123.739 190.779 123.291 190.608 122.672 190.608C122.085 190.608 121.621 190.725 121.28 190.96C120.949 191.195 120.709 191.541 120.56 192C120.421 192.448 120.352 193.003 120.352 193.664V198H118.656V185.84H120.352V189.088ZM132.126 189.216C132.884 189.216 133.534 189.376 134.078 189.696C134.622 190.005 135.038 190.453 135.326 191.04C135.625 191.627 135.774 192.32 135.774 193.12V194.048H129.982C130.004 194.933 130.233 195.611 130.67 196.08C131.118 196.549 131.742 196.784 132.542 196.784C133.097 196.784 133.588 196.736 134.014 196.64C134.452 196.533 134.9 196.379 135.358 196.176V197.584C134.932 197.776 134.494 197.92 134.046 198.016C133.609 198.112 133.086 198.16 132.478 198.16C131.646 198.16 130.91 197.995 130.27 197.664C129.63 197.333 129.129 196.843 128.766 196.192C128.414 195.531 128.238 194.72 128.238 193.76C128.238 192.789 128.398 191.968 128.718 191.296C129.049 190.624 129.502 190.112 130.078 189.76C130.665 189.397 131.348 189.216 132.126 189.216ZM132.126 190.528C131.518 190.528 131.028 190.725 130.654 191.12C130.292 191.515 130.078 192.075 130.014 192.8H134.078C134.078 192.352 134.009 191.957 133.87 191.616C133.732 191.275 133.518 191.008 133.23 190.816C132.942 190.624 132.574 190.528 132.126 190.528ZM146.351 189.216C147.385 189.216 148.217 189.589 148.847 190.336C149.487 191.083 149.807 192.197 149.807 193.68C149.807 194.651 149.663 195.472 149.375 196.144C149.087 196.816 148.681 197.323 148.159 197.664C147.636 197.995 147.028 198.16 146.335 198.16C145.897 198.16 145.513 198.107 145.183 198C144.852 197.883 144.569 197.733 144.335 197.552C144.111 197.36 143.913 197.157 143.743 196.944H143.631C143.663 197.136 143.689 197.365 143.711 197.632C143.732 197.888 143.743 198.117 143.743 198.32V201.84H142.047V189.376H143.423L143.663 190.528H143.743C143.913 190.293 144.116 190.075 144.351 189.872C144.585 189.669 144.868 189.509 145.199 189.392C145.529 189.275 145.913 189.216 146.351 189.216ZM145.951 190.608C145.417 190.608 144.991 190.715 144.671 190.928C144.351 191.131 144.116 191.44 143.967 191.856C143.828 192.261 143.753 192.779 143.743 193.408V193.664C143.743 194.325 143.812 194.891 143.951 195.36C144.089 195.819 144.319 196.171 144.639 196.416C144.969 196.651 145.417 196.768 145.983 196.768C146.463 196.768 146.852 196.64 147.151 196.384C147.46 196.117 147.689 195.749 147.839 195.28C147.988 194.811 148.063 194.267 148.063 193.648C148.063 192.709 147.892 191.968 147.551 191.424C147.209 190.88 146.676 190.608 145.951 190.608ZM156.225 189.216C156.374 189.216 156.539 189.227 156.721 189.248C156.902 189.259 157.051 189.275 157.169 189.296L156.993 190.88C156.875 190.848 156.737 190.821 156.577 190.8C156.417 190.779 156.267 190.768 156.129 190.768C155.809 190.768 155.499 190.832 155.201 190.96C154.913 191.077 154.651 191.253 154.417 191.488C154.182 191.712 153.995 191.989 153.857 192.32C153.729 192.651 153.665 193.029 153.665 193.456V198H151.969V189.376H153.313L153.537 190.912H153.601C153.782 190.603 154.001 190.32 154.257 190.064C154.513 189.808 154.806 189.605 155.137 189.456C155.467 189.296 155.83 189.216 156.225 189.216ZM166.053 193.68C166.053 194.395 165.957 195.029 165.765 195.584C165.573 196.139 165.301 196.608 164.949 196.992C164.597 197.376 164.17 197.669 163.669 197.872C163.168 198.064 162.602 198.16 161.973 198.16C161.397 198.16 160.864 198.064 160.373 197.872C159.882 197.669 159.456 197.376 159.093 196.992C158.741 196.608 158.464 196.139 158.261 195.584C158.058 195.029 157.957 194.389 157.957 193.664C157.957 192.715 158.117 191.909 158.437 191.248C158.768 190.587 159.237 190.085 159.845 189.744C160.464 189.392 161.189 189.216 162.021 189.216C162.81 189.216 163.504 189.392 164.101 189.744C164.709 190.085 165.184 190.587 165.525 191.248C165.877 191.909 166.053 192.72 166.053 193.68ZM159.701 193.68C159.701 194.32 159.781 194.875 159.941 195.344C160.101 195.803 160.352 196.155 160.693 196.4C161.034 196.645 161.472 196.768 162.005 196.768C162.538 196.768 162.976 196.645 163.317 196.4C163.658 196.155 163.909 195.803 164.069 195.344C164.229 194.875 164.309 194.32 164.309 193.68C164.309 193.019 164.224 192.464 164.053 192.016C163.893 191.568 163.642 191.227 163.301 190.992C162.97 190.747 162.533 190.624 161.989 190.624C161.189 190.624 160.608 190.891 160.245 191.424C159.882 191.957 159.701 192.709 159.701 193.68ZM167.291 201.84C167.024 201.84 166.779 201.819 166.555 201.776C166.32 201.744 166.118 201.701 165.947 201.648V200.288C166.118 200.331 166.288 200.368 166.459 200.4C166.63 200.432 166.822 200.448 167.035 200.448C167.366 200.448 167.643 200.352 167.867 200.16C168.091 199.979 168.203 199.627 168.203 199.104V189.376H169.899V199.184C169.899 199.717 169.808 200.181 169.627 200.576C169.446 200.981 169.163 201.291 168.779 201.504C168.406 201.728 167.91 201.84 167.291 201.84ZM168.091 187.072C168.091 186.72 168.182 186.469 168.363 186.32C168.555 186.171 168.79 186.096 169.067 186.096C169.323 186.096 169.547 186.171 169.739 186.32C169.931 186.469 170.027 186.72 170.027 187.072C170.027 187.413 169.931 187.664 169.739 187.824C169.547 187.973 169.323 188.048 169.067 188.048C168.79 188.048 168.555 187.973 168.363 187.824C168.182 187.664 168.091 187.413 168.091 187.072ZM175.954 189.216C176.712 189.216 177.362 189.376 177.906 189.696C178.45 190.005 178.866 190.453 179.154 191.04C179.453 191.627 179.602 192.32 179.602 193.12V194.048H173.81C173.832 194.933 174.061 195.611 174.498 196.08C174.946 196.549 175.57 196.784 176.37 196.784C176.925 196.784 177.416 196.736 177.842 196.64C178.28 196.533 178.728 196.379 179.186 196.176V197.584C178.76 197.776 178.322 197.92 177.874 198.016C177.437 198.112 176.914 198.16 176.306 198.16C175.474 198.16 174.738 197.995 174.098 197.664C173.458 197.333 172.957 196.843 172.594 196.192C172.242 195.531 172.066 194.72 172.066 193.76C172.066 192.789 172.226 191.968 172.546 191.296C172.877 190.624 173.33 190.112 173.906 189.76C174.493 189.397 175.176 189.216 175.954 189.216ZM175.954 190.528C175.346 190.528 174.856 190.725 174.482 191.12C174.12 191.515 173.906 192.075 173.842 192.8H177.906C177.906 192.352 177.837 191.957 177.698 191.616C177.56 191.275 177.346 191.008 177.058 190.816C176.77 190.624 176.402 190.528 175.954 190.528ZM185.191 198.16C184.401 198.16 183.708 198.005 183.111 197.696C182.513 197.387 182.049 196.907 181.719 196.256C181.388 195.595 181.223 194.757 181.223 193.744C181.223 192.677 181.399 191.813 181.751 191.152C182.113 190.491 182.599 190.005 183.207 189.696C183.825 189.376 184.529 189.216 185.319 189.216C185.799 189.216 186.247 189.269 186.663 189.376C187.089 189.472 187.441 189.584 187.719 189.712L187.207 191.088C186.908 190.971 186.588 190.869 186.247 190.784C185.916 190.699 185.601 190.656 185.303 190.656C184.769 190.656 184.327 190.773 183.975 191.008C183.633 191.232 183.377 191.573 183.207 192.032C183.047 192.48 182.967 193.045 182.967 193.728C182.967 194.379 183.052 194.928 183.223 195.376C183.393 195.824 183.644 196.165 183.975 196.4C184.316 196.624 184.737 196.736 185.239 196.736C185.719 196.736 186.14 196.683 186.503 196.576C186.865 196.469 187.207 196.331 187.527 196.16V197.632C187.217 197.813 186.881 197.947 186.519 198.032C186.156 198.117 185.713 198.16 185.191 198.16ZM192.666 196.784C192.89 196.784 193.12 196.763 193.354 196.72C193.589 196.677 193.792 196.629 193.962 196.576V197.856C193.781 197.941 193.536 198.011 193.226 198.064C192.917 198.128 192.608 198.16 192.298 198.16C191.829 198.16 191.397 198.08 191.002 197.92C190.618 197.76 190.309 197.483 190.074 197.088C189.84 196.693 189.722 196.144 189.722 195.44V190.672H188.522V189.904L189.786 189.264L190.378 187.44H191.418V189.376H193.882V190.672H191.418V195.408C191.418 195.877 191.53 196.224 191.754 196.448C191.989 196.672 192.293 196.784 192.666 196.784ZM203.188 189.216C204.276 189.216 205.086 189.456 205.62 189.936C206.153 190.405 206.42 191.147 206.42 192.16V198H205.22L204.884 196.8H204.82C204.574 197.109 204.318 197.365 204.052 197.568C203.796 197.771 203.497 197.92 203.156 198.016C202.825 198.112 202.42 198.16 201.94 198.16C201.428 198.16 200.964 198.069 200.548 197.888C200.142 197.696 199.822 197.408 199.588 197.024C199.353 196.629 199.236 196.139 199.236 195.552C199.236 194.677 199.566 194.011 200.228 193.552C200.9 193.093 201.918 192.843 203.284 192.8L204.756 192.752V192.272C204.756 191.632 204.612 191.184 204.324 190.928C204.036 190.672 203.63 190.544 203.108 190.544C202.66 190.544 202.233 190.608 201.828 190.736C201.422 190.864 201.038 191.019 200.676 191.2L200.132 189.968C200.537 189.755 201.001 189.579 201.524 189.44C202.057 189.291 202.612 189.216 203.188 189.216ZM203.588 193.888C202.606 193.931 201.924 194.096 201.54 194.384C201.166 194.661 200.98 195.056 200.98 195.568C200.98 196.016 201.113 196.341 201.38 196.544C201.657 196.747 202.004 196.848 202.42 196.848C203.092 196.848 203.646 196.661 204.084 196.288C204.521 195.915 204.74 195.355 204.74 194.608V193.856L203.588 193.888ZM213.399 189.216C214.402 189.216 215.17 189.467 215.703 189.968C216.236 190.469 216.503 191.275 216.503 192.384V198H214.823V192.624C214.823 191.952 214.679 191.451 214.391 191.12C214.114 190.779 213.666 190.608 213.047 190.608C212.172 190.608 211.564 190.869 211.223 191.392C210.892 191.915 210.727 192.667 210.727 193.648V198H209.031V189.376H210.375L210.615 190.528H210.711C210.903 190.229 211.138 189.984 211.415 189.792C211.692 189.6 212.002 189.456 212.343 189.36C212.684 189.264 213.036 189.216 213.399 189.216ZM222.069 198.16C221.035 198.16 220.197 197.787 219.557 197.04C218.928 196.293 218.613 195.184 218.613 193.712C218.613 192.229 218.933 191.109 219.573 190.352C220.213 189.595 221.056 189.216 222.101 189.216C222.539 189.216 222.917 189.275 223.237 189.392C223.568 189.499 223.851 189.648 224.085 189.84C224.331 190.032 224.539 190.245 224.709 190.48H224.805C224.784 190.331 224.757 190.117 224.725 189.84C224.693 189.552 224.677 189.296 224.677 189.072V185.84H226.373V198H225.045L224.757 196.848H224.677C224.517 197.093 224.315 197.317 224.069 197.52C223.835 197.712 223.552 197.867 223.221 197.984C222.891 198.101 222.507 198.16 222.069 198.16ZM222.469 196.768C223.301 196.768 223.888 196.539 224.229 196.08C224.571 195.611 224.741 194.912 224.741 193.984V193.728C224.741 192.715 224.576 191.941 224.245 191.408C223.925 190.875 223.328 190.608 222.453 190.608C221.76 190.608 221.237 190.891 220.885 191.456C220.533 192.011 220.357 192.773 220.357 193.744C220.357 194.715 220.533 195.461 220.885 195.984C221.237 196.507 221.765 196.768 222.469 196.768ZM236.531 189.216C237.619 189.216 238.43 189.456 238.963 189.936C239.497 190.405 239.763 191.147 239.763 192.16V198H238.563L238.227 196.8H238.163C237.918 197.109 237.662 197.365 237.395 197.568C237.139 197.771 236.841 197.92 236.499 198.016C236.169 198.112 235.763 198.16 235.283 198.16C234.771 198.16 234.307 198.069 233.891 197.888C233.486 197.696 233.166 197.408 232.931 197.024C232.697 196.629 232.579 196.139 232.579 195.552C232.579 194.677 232.91 194.011 233.571 193.552C234.243 193.093 235.262 192.843 236.627 192.8L238.099 192.752V192.272C238.099 191.632 237.955 191.184 237.667 190.928C237.379 190.672 236.974 190.544 236.451 190.544C236.003 190.544 235.577 190.608 235.171 190.736C234.766 190.864 234.382 191.019 234.019 191.2L233.475 189.968C233.881 189.755 234.345 189.579 234.867 189.44C235.401 189.291 235.955 189.216 236.531 189.216ZM236.931 193.888C235.95 193.931 235.267 194.096 234.883 194.384C234.51 194.661 234.323 195.056 234.323 195.568C234.323 196.016 234.457 196.341 234.723 196.544C235.001 196.747 235.347 196.848 235.763 196.848C236.435 196.848 236.99 196.661 237.427 196.288C237.865 195.915 238.083 195.355 238.083 194.608V193.856L236.931 193.888ZM244.071 198H242.375V185.84H244.071V198ZM248.43 198H246.734V185.84H248.43V198ZM256.946 189.376V198H255.25V189.376H256.946ZM256.114 186.096C256.37 186.096 256.594 186.171 256.786 186.32C256.978 186.469 257.074 186.72 257.074 187.072C257.074 187.413 256.978 187.664 256.786 187.824C256.594 187.973 256.37 188.048 256.114 188.048C255.837 188.048 255.602 187.973 255.41 187.824C255.229 187.664 255.138 187.413 255.138 187.072C255.138 186.72 255.229 186.469 255.41 186.32C255.602 186.171 255.837 186.096 256.114 186.096ZM262.713 196.784C262.937 196.784 263.167 196.763 263.401 196.72C263.636 196.677 263.839 196.629 264.009 196.576V197.856C263.828 197.941 263.583 198.011 263.273 198.064C262.964 198.128 262.655 198.16 262.345 198.16C261.876 198.16 261.444 198.08 261.049 197.92C260.665 197.76 260.356 197.483 260.121 197.088C259.887 196.693 259.769 196.144 259.769 195.44V190.672H258.569V189.904L259.833 189.264L260.425 187.44H261.465V189.376H263.929V190.672H261.465V195.408C261.465 195.877 261.577 196.224 261.801 196.448C262.036 196.672 262.34 196.784 262.713 196.784ZM271.462 195.568C271.462 196.133 271.324 196.608 271.046 196.992C270.769 197.376 270.369 197.669 269.846 197.872C269.324 198.064 268.694 198.16 267.958 198.16C267.35 198.16 266.828 198.112 266.39 198.016C265.964 197.931 265.569 197.803 265.206 197.632V196.144C265.59 196.325 266.033 196.491 266.534 196.64C267.036 196.779 267.526 196.848 268.006 196.848C268.646 196.848 269.105 196.747 269.382 196.544C269.67 196.341 269.814 196.069 269.814 195.728C269.814 195.536 269.761 195.365 269.654 195.216C269.548 195.056 269.345 194.896 269.046 194.736C268.758 194.565 268.332 194.373 267.766 194.16C267.222 193.936 266.758 193.717 266.374 193.504C265.99 193.28 265.697 193.019 265.494 192.72C265.292 192.411 265.19 192.016 265.19 191.536C265.19 190.789 265.489 190.219 266.086 189.824C266.694 189.419 267.494 189.216 268.486 189.216C269.009 189.216 269.5 189.269 269.958 189.376C270.428 189.472 270.881 189.621 271.318 189.824L270.758 191.12C270.513 191.003 270.257 190.907 269.99 190.832C269.734 190.747 269.473 190.677 269.206 190.624C268.95 190.571 268.684 190.544 268.406 190.544C267.894 190.544 267.505 190.624 267.238 190.784C266.972 190.944 266.838 191.168 266.838 191.456C266.838 191.659 266.897 191.835 267.014 191.984C267.142 192.133 267.361 192.283 267.67 192.432C267.98 192.581 268.401 192.763 268.934 192.976C269.468 193.179 269.921 193.387 270.294 193.6C270.678 193.813 270.966 194.075 271.158 194.384C271.361 194.693 271.462 195.088 271.462 195.568ZM44.672 221.216C45.76 221.216 46.5707 221.456 47.104 221.936C47.6373 222.405 47.904 223.147 47.904 224.16V230H46.704L46.368 228.8H46.304C46.0587 229.109 45.8027 229.365 45.536 229.568C45.28 229.771 44.9813 229.92 44.64 230.016C44.3093 230.112 43.904 230.16 43.424 230.16C42.912 230.16 42.448 230.069 42.032 229.888C41.6267 229.696 41.3067 229.408 41.072 229.024C40.8373 228.629 40.72 228.139 40.72 227.552C40.72 226.677 41.0507 226.011 41.712 225.552C42.384 225.093 43.4027 224.843 44.768 224.8L46.24 224.752V224.272C46.24 223.632 46.096 223.184 45.808 222.928C45.52 222.672 45.1147 222.544 44.592 222.544C44.144 222.544 43.7173 222.608 43.312 222.736C42.9067 222.864 42.5227 223.019 42.16 223.2L41.616 221.968C42.0213 221.755 42.4853 221.579 43.008 221.44C43.5413 221.291 44.096 221.216 44.672 221.216ZM45.072 225.888C44.0907 225.931 43.408 226.096 43.024 226.384C42.6507 226.661 42.464 227.056 42.464 227.568C42.464 228.016 42.5973 228.341 42.864 228.544C43.1413 228.747 43.488 228.848 43.904 228.848C44.576 228.848 45.1307 228.661 45.568 228.288C46.0053 227.915 46.224 227.355 46.224 226.608V225.856L45.072 225.888ZM56.2435 227.568C56.2435 228.133 56.1048 228.608 55.8275 228.992C55.5502 229.376 55.1502 229.669 54.6275 229.872C54.1048 230.064 53.4755 230.16 52.7395 230.16C52.1315 230.16 51.6088 230.112 51.1715 230.016C50.7448 229.931 50.3502 229.803 49.9875 229.632V228.144C50.3715 228.325 50.8142 228.491 51.3155 228.64C51.8168 228.779 52.3075 228.848 52.7875 228.848C53.4275 228.848 53.8862 228.747 54.1635 228.544C54.4515 228.341 54.5955 228.069 54.5955 227.728C54.5955 227.536 54.5422 227.365 54.4355 227.216C54.3288 227.056 54.1262 226.896 53.8275 226.736C53.5395 226.565 53.1128 226.373 52.5475 226.16C52.0035 225.936 51.5395 225.717 51.1555 225.504C50.7715 225.28 50.4782 225.019 50.2755 224.72C50.0728 224.411 49.9715 224.016 49.9715 223.536C49.9715 222.789 50.2702 222.219 50.8675 221.824C51.4755 221.419 52.2755 221.216 53.2675 221.216C53.7902 221.216 54.2808 221.269 54.7395 221.376C55.2088 221.472 55.6622 221.621 56.0995 221.824L55.5395 223.12C55.2942 223.003 55.0382 222.907 54.7715 222.832C54.5155 222.747 54.2542 222.677 53.9875 222.624C53.7315 222.571 53.4648 222.544 53.1875 222.544C52.6755 222.544 52.2862 222.624 52.0195 222.784C51.7528 222.944 51.6195 223.168 51.6195 223.456C51.6195 223.659 51.6782 223.835 51.7955 223.984C51.9235 224.133 52.1422 224.283 52.4515 224.432C52.7608 224.581 53.1822 224.763 53.7155 224.976C54.2488 225.179 54.7022 225.387 55.0755 225.6C55.4595 225.813 55.7475 226.075 55.9395 226.384C56.1422 226.693 56.2435 227.088 56.2435 227.568ZM63.9935 227.568C63.9935 228.133 63.8548 228.608 63.5775 228.992C63.3002 229.376 62.9002 229.669 62.3775 229.872C61.8548 230.064 61.2255 230.16 60.4895 230.16C59.8815 230.16 59.3588 230.112 58.9215 230.016C58.4948 229.931 58.1002 229.803 57.7375 229.632V228.144C58.1215 228.325 58.5642 228.491 59.0655 228.64C59.5668 228.779 60.0575 228.848 60.5375 228.848C61.1775 228.848 61.6362 228.747 61.9135 228.544C62.2015 228.341 62.3455 228.069 62.3455 227.728C62.3455 227.536 62.2922 227.365 62.1855 227.216C62.0788 227.056 61.8762 226.896 61.5775 226.736C61.2895 226.565 60.8628 226.373 60.2975 226.16C59.7535 225.936 59.2895 225.717 58.9055 225.504C58.5215 225.28 58.2282 225.019 58.0255 224.72C57.8228 224.411 57.7215 224.016 57.7215 223.536C57.7215 222.789 58.0202 222.219 58.6175 221.824C59.2255 221.419 60.0255 221.216 61.0175 221.216C61.5402 221.216 62.0308 221.269 62.4895 221.376C62.9588 221.472 63.4122 221.621 63.8495 221.824L63.2895 223.12C63.0442 223.003 62.7882 222.907 62.5215 222.832C62.2655 222.747 62.0042 222.677 61.7375 222.624C61.4815 222.571 61.2148 222.544 60.9375 222.544C60.4255 222.544 60.0362 222.624 59.7695 222.784C59.5028 222.944 59.3695 223.168 59.3695 223.456C59.3695 223.659 59.4282 223.835 59.5455 223.984C59.6735 224.133 59.8922 224.283 60.2015 224.432C60.5108 224.581 60.9322 224.763 61.4655 224.976C61.9988 225.179 62.4522 225.387 62.8255 225.6C63.2095 225.813 63.4975 226.075 63.6895 226.384C63.8922 226.693 63.9935 227.088 63.9935 227.568ZM69.4075 221.216C70.1648 221.216 70.8155 221.376 71.3595 221.696C71.9035 222.005 72.3195 222.453 72.6075 223.04C72.9062 223.627 73.0555 224.32 73.0555 225.12V226.048H67.2635C67.2848 226.933 67.5142 227.611 67.9515 228.08C68.3995 228.549 69.0235 228.784 69.8235 228.784C70.3782 228.784 70.8688 228.736 71.2955 228.64C71.7328 228.533 72.1808 228.379 72.6395 228.176V229.584C72.2128 229.776 71.7755 229.92 71.3275 230.016C70.8902 230.112 70.3675 230.16 69.7595 230.16C68.9275 230.16 68.1915 229.995 67.5515 229.664C66.9115 229.333 66.4102 228.843 66.0475 228.192C65.6955 227.531 65.5195 226.72 65.5195 225.76C65.5195 224.789 65.6795 223.968 65.9995 223.296C66.3302 222.624 66.7835 222.112 67.3595 221.76C67.9462 221.397 68.6288 221.216 69.4075 221.216ZM69.4075 222.528C68.7995 222.528 68.3088 222.725 67.9355 223.12C67.5728 223.515 67.3595 224.075 67.2955 224.8H71.3595C71.3595 224.352 71.2902 223.957 71.1515 223.616C71.0128 223.275 70.7995 223.008 70.5115 222.816C70.2235 222.624 69.8555 222.528 69.4075 222.528ZM78.2758 228.784C78.4998 228.784 78.7291 228.763 78.9638 228.72C79.1984 228.677 79.4011 228.629 79.5718 228.576V229.856C79.3904 229.941 79.1451 230.011 78.8358 230.064C78.5264 230.128 78.2171 230.16 77.9078 230.16C77.4384 230.16 77.0064 230.08 76.6118 229.92C76.2278 229.76 75.9184 229.483 75.6838 229.088C75.4491 228.693 75.3318 228.144 75.3318 227.44V222.672H74.1318V221.904L75.3958 221.264L75.9878 219.44H77.0278V221.376H79.4918V222.672H77.0278V227.408C77.0278 227.877 77.1398 228.224 77.3638 228.448C77.5984 228.672 77.9024 228.784 78.2758 228.784ZM87.0248 227.568C87.0248 228.133 86.8861 228.608 86.6088 228.992C86.3314 229.376 85.9314 229.669 85.4088 229.872C84.8861 230.064 84.2568 230.16 83.5208 230.16C82.9128 230.16 82.3901 230.112 81.9528 230.016C81.5261 229.931 81.1314 229.803 80.7688 229.632V228.144C81.1528 228.325 81.5954 228.491 82.0968 228.64C82.5981 228.779 83.0888 228.848 83.5688 228.848C84.2088 228.848 84.6674 228.747 84.9448 228.544C85.2328 228.341 85.3768 228.069 85.3768 227.728C85.3768 227.536 85.3234 227.365 85.2168 227.216C85.1101 227.056 84.9074 226.896 84.6088 226.736C84.3208 226.565 83.8941 226.373 83.3288 226.16C82.7848 225.936 82.3208 225.717 81.9368 225.504C81.5528 225.28 81.2594 225.019 81.0568 224.72C80.8541 224.411 80.7528 224.016 80.7528 223.536C80.7528 222.789 81.0514 222.219 81.6488 221.824C82.2568 221.419 83.0568 221.216 84.0488 221.216C84.5714 221.216 85.0621 221.269 85.5208 221.376C85.9901 221.472 86.4434 221.621 86.8808 221.824L86.3208 223.12C86.0754 223.003 85.8194 222.907 85.5528 222.832C85.2968 222.747 85.0354 222.677 84.7688 222.624C84.5128 222.571 84.2461 222.544 83.9688 222.544C83.4568 222.544 83.0674 222.624 82.8008 222.784C82.5341 222.944 82.4008 223.168 82.4008 223.456C82.4008 223.659 82.4594 223.835 82.5768 223.984C82.7048 224.133 82.9234 224.283 83.2328 224.432C83.5421 224.581 83.9634 224.763 84.4968 224.976C85.0301 225.179 85.4834 225.387 85.8568 225.6C86.2408 225.813 86.5288 226.075 86.7208 226.384C86.9234 226.693 87.0248 227.088 87.0248 227.568ZM96.307 228.784C96.531 228.784 96.7603 228.763 96.995 228.72C97.2297 228.677 97.4323 228.629 97.603 228.576V229.856C97.4217 229.941 97.1763 230.011 96.867 230.064C96.5577 230.128 96.2483 230.16 95.939 230.16C95.4697 230.16 95.0377 230.08 94.643 229.92C94.259 229.76 93.9497 229.483 93.715 229.088C93.4803 228.693 93.363 228.144 93.363 227.44V222.672H92.163V221.904L93.427 221.264L94.019 219.44H95.059V221.376H97.523V222.672H95.059V227.408C95.059 227.877 95.171 228.224 95.395 228.448C95.6297 228.672 95.9337 228.784 96.307 228.784ZM106.928 225.68C106.928 226.395 106.832 227.029 106.64 227.584C106.448 228.139 106.176 228.608 105.824 228.992C105.472 229.376 105.045 229.669 104.544 229.872C104.043 230.064 103.477 230.16 102.848 230.16C102.272 230.16 101.739 230.064 101.248 229.872C100.757 229.669 100.331 229.376 99.968 228.992C99.616 228.608 99.3387 228.139 99.136 227.584C98.9333 227.029 98.832 226.389 98.832 225.664C98.832 224.715 98.992 223.909 99.312 223.248C99.6427 222.587 100.112 222.085 100.72 221.744C101.339 221.392 102.064 221.216 102.896 221.216C103.685 221.216 104.379 221.392 104.976 221.744C105.584 222.085 106.059 222.587 106.4 223.248C106.752 223.909 106.928 224.72 106.928 225.68ZM100.576 225.68C100.576 226.32 100.656 226.875 100.816 227.344C100.976 227.803 101.227 228.155 101.568 228.4C101.909 228.645 102.347 228.768 102.88 228.768C103.413 228.768 103.851 228.645 104.192 228.4C104.533 228.155 104.784 227.803 104.944 227.344C105.104 226.875 105.184 226.32 105.184 225.68C105.184 225.019 105.099 224.464 104.928 224.016C104.768 223.568 104.517 223.227 104.176 222.992C103.845 222.747 103.408 222.624 102.864 222.624C102.064 222.624 101.483 222.891 101.12 223.424C100.757 223.957 100.576 224.709 100.576 225.68ZM111.922 221.376H113.746L115.538 226.272C115.634 226.517 115.72 226.757 115.794 226.992C115.869 227.227 115.933 227.461 115.986 227.696C116.05 227.92 116.098 228.144 116.13 228.368H116.194C116.248 228.091 116.333 227.765 116.45 227.392C116.568 227.008 116.69 226.629 116.818 226.256L118.514 221.376H120.338L116.642 231.168C116.44 231.723 116.189 232.197 115.89 232.592C115.592 232.997 115.234 233.307 114.818 233.52C114.413 233.733 113.933 233.84 113.378 233.84C113.112 233.84 112.882 233.824 112.69 233.792C112.498 233.771 112.333 233.744 112.194 233.712V232.368C112.312 232.389 112.45 232.411 112.61 232.432C112.781 232.453 112.957 232.464 113.138 232.464C113.469 232.464 113.752 232.4 113.986 232.272C114.232 232.144 114.434 231.963 114.594 231.728C114.765 231.493 114.909 231.227 115.026 230.928L115.378 230L111.922 221.376ZM129.272 225.68C129.272 226.395 129.176 227.029 128.984 227.584C128.792 228.139 128.52 228.608 128.168 228.992C127.816 229.376 127.389 229.669 126.888 229.872C126.386 230.064 125.821 230.16 125.192 230.16C124.616 230.16 124.082 230.064 123.592 229.872C123.101 229.669 122.674 229.376 122.312 228.992C121.96 228.608 121.682 228.139 121.48 227.584C121.277 227.029 121.176 226.389 121.176 225.664C121.176 224.715 121.336 223.909 121.656 223.248C121.986 222.587 122.456 222.085 123.064 221.744C123.682 221.392 124.408 221.216 125.24 221.216C126.029 221.216 126.722 221.392 127.32 221.744C127.928 222.085 128.402 222.587 128.744 223.248C129.096 223.909 129.272 224.72 129.272 225.68ZM122.92 225.68C122.92 226.32 123 226.875 123.16 227.344C123.32 227.803 123.57 228.155 123.912 228.4C124.253 228.645 124.69 228.768 125.224 228.768C125.757 228.768 126.194 228.645 126.536 228.4C126.877 228.155 127.128 227.803 127.288 227.344C127.448 226.875 127.528 226.32 127.528 225.68C127.528 225.019 127.442 224.464 127.272 224.016C127.112 223.568 126.861 223.227 126.52 222.992C126.189 222.747 125.752 222.624 125.208 222.624C124.408 222.624 123.826 222.891 123.464 223.424C123.101 223.957 122.92 224.709 122.92 225.68ZM138.846 221.376V230H137.486L137.246 228.864H137.166C136.984 229.163 136.75 229.408 136.462 229.6C136.174 229.792 135.859 229.931 135.518 230.016C135.176 230.112 134.824 230.16 134.462 230.16C133.79 230.16 133.219 230.053 132.75 229.84C132.291 229.616 131.939 229.275 131.694 228.816C131.459 228.347 131.342 227.749 131.342 227.024V221.376H133.054V226.768C133.054 227.44 133.192 227.941 133.47 228.272C133.758 228.603 134.2 228.768 134.798 228.768C135.395 228.768 135.864 228.651 136.206 228.416C136.547 228.181 136.787 227.84 136.926 227.392C137.075 226.933 137.15 226.384 137.15 225.744V221.376H138.846ZM141.26 229.056C141.26 228.64 141.367 228.347 141.58 228.176C141.793 228.005 142.049 227.92 142.348 227.92C142.657 227.92 142.919 228.005 143.132 228.176C143.345 228.347 143.452 228.64 143.452 229.056C143.452 229.472 143.345 229.771 143.132 229.952C142.919 230.133 142.657 230.224 142.348 230.224C142.049 230.224 141.793 230.133 141.58 229.952C141.367 229.771 141.26 229.472 141.26 229.056Z" fill="white" fill-opacity="0.6"/>
</svg>
