<svg width="328" height="276" viewBox="0 0 328 276" fill="none" xmlns="http://www.w3.org/2000/svg">
<rect width="328" height="276" rx="5" fill="white" fill-opacity="0.05"/>
<rect x="40" y="32" width="50" height="50" rx="3" fill="white" fill-opacity="0.03"/>
<path d="M69 63L75 57L69 51" stroke="white" stroke-width="2" stroke-linecap="round" stroke-linejoin="round"/>
<path d="M61 51L55 57L61 63" stroke="white" stroke-width="2" stroke-linecap="round" stroke-linejoin="round"/>
<path d="M52.276 123.448C52.276 124.888 52 126.094 51.448 127.066C50.896 128.038 50.092 128.77 49.036 129.262C47.992 129.754 46.732 130 45.256 130H41.62V117.148H45.652C46.996 117.148 48.16 117.388 49.144 117.868C50.14 118.348 50.908 119.056 51.448 119.992C52 120.916 52.276 122.068 52.276 123.448ZM49.45 123.52C49.45 122.572 49.312 121.792 49.036 121.18C48.76 120.568 48.346 120.118 47.794 119.83C47.254 119.53 46.588 119.38 45.796 119.38H44.338V127.75H45.508C46.84 127.75 47.83 127.396 48.478 126.688C49.126 125.98 49.45 124.924 49.45 123.52ZM58.7782 119.992C59.6902 119.992 60.4702 120.166 61.1182 120.514C61.7782 120.862 62.2882 121.366 62.6482 122.026C63.0082 122.686 63.1882 123.496 63.1882 124.456V125.752H56.8522C56.8762 126.508 57.0982 127.102 57.5182 127.534C57.9502 127.966 58.5442 128.182 59.3002 128.182C59.9362 128.182 60.5122 128.122 61.0282 128.002C61.5442 127.87 62.0782 127.672 62.6302 127.408V129.478C62.1502 129.718 61.6402 129.892 61.1002 130C60.5722 130.12 59.9302 130.18 59.1742 130.18C58.1902 130.18 57.3202 130 56.5642 129.64C55.8082 129.268 55.2142 128.71 54.7822 127.966C54.3502 127.222 54.1342 126.286 54.1342 125.158C54.1342 124.006 54.3262 123.052 54.7102 122.296C55.1062 121.528 55.6522 120.952 56.3482 120.568C57.0442 120.184 57.8542 119.992 58.7782 119.992ZM58.7962 121.9C58.2802 121.9 57.8482 122.068 57.5002 122.404C57.1642 122.74 56.9662 123.262 56.9062 123.97H60.6682C60.6682 123.574 60.5962 123.22 60.4522 122.908C60.3202 122.596 60.1162 122.35 59.8402 122.17C59.5642 121.99 59.2162 121.9 58.7962 121.9ZM67.3514 130L63.6074 120.172H66.4154L68.3054 125.77C68.3774 125.986 68.4374 126.214 68.4854 126.454C68.5454 126.694 68.5874 126.928 68.6114 127.156C68.6474 127.384 68.6714 127.594 68.6834 127.786H68.7554C68.7674 127.582 68.7914 127.366 68.8274 127.138C68.8634 126.91 68.9054 126.682 68.9534 126.454C69.0134 126.214 69.0794 125.986 69.1514 125.77L71.0414 120.172H73.8494L70.1054 130H67.3514ZM79.3095 119.992C80.2215 119.992 81.0015 120.166 81.6495 120.514C82.3095 120.862 82.8195 121.366 83.1795 122.026C83.5395 122.686 83.7195 123.496 83.7195 124.456V125.752H77.3835C77.4075 126.508 77.6295 127.102 78.0495 127.534C78.4815 127.966 79.0755 128.182 79.8315 128.182C80.4675 128.182 81.0435 128.122 81.5595 128.002C82.0755 127.87 82.6095 127.672 83.1615 127.408V129.478C82.6815 129.718 82.1715 129.892 81.6315 130C81.1035 130.12 80.4615 130.18 79.7055 130.18C78.7215 130.18 77.8515 130 77.0955 129.64C76.3395 129.268 75.7455 128.71 75.3135 127.966C74.8815 127.222 74.6655 126.286 74.6655 125.158C74.6655 124.006 74.8575 123.052 75.2415 122.296C75.6375 121.528 76.1835 120.952 76.8795 120.568C77.5755 120.184 78.3855 119.992 79.3095 119.992ZM79.3275 121.9C78.8115 121.9 78.3795 122.068 78.0315 122.404C77.6955 122.74 77.4975 123.262 77.4375 123.97H81.1995C81.1995 123.574 81.1275 123.22 80.9835 122.908C80.8515 122.596 80.6475 122.35 80.3715 122.17C80.0955 121.99 79.7475 121.9 79.3275 121.9ZM88.5762 130H85.8942V116.32H88.5762V130ZM100.307 125.068C100.307 125.884 100.193 126.61 99.9646 127.246C99.7486 127.882 99.4306 128.422 99.0106 128.866C98.6026 129.298 98.1046 129.628 97.5166 129.856C96.9286 130.072 96.2626 130.18 95.5186 130.18C94.8346 130.18 94.1986 130.072 93.6106 129.856C93.0346 129.628 92.5366 129.298 92.1166 128.866C91.6966 128.422 91.3666 127.882 91.1266 127.246C90.8986 126.61 90.7846 125.884 90.7846 125.068C90.7846 123.976 90.9766 123.058 91.3606 122.314C91.7446 121.558 92.2966 120.982 93.0166 120.586C93.7366 120.19 94.5886 119.992 95.5726 119.992C96.4966 119.992 97.3126 120.19 98.0206 120.586C98.7286 120.982 99.2866 121.558 99.6946 122.314C100.103 123.058 100.307 123.976 100.307 125.068ZM93.5206 125.068C93.5206 125.716 93.5866 126.262 93.7186 126.706C93.8626 127.138 94.0846 127.468 94.3846 127.696C94.6846 127.912 95.0746 128.02 95.5546 128.02C96.0346 128.02 96.4186 127.912 96.7066 127.696C97.0066 127.468 97.2226 127.138 97.3546 126.706C97.4986 126.262 97.5706 125.716 97.5706 125.068C97.5706 124.42 97.4986 123.88 97.3546 123.448C97.2226 123.016 97.0066 122.692 96.7066 122.476C96.4066 122.26 96.0166 122.152 95.5366 122.152C94.8286 122.152 94.3126 122.398 93.9886 122.89C93.6766 123.37 93.5206 124.096 93.5206 125.068ZM107.995 119.992C109.099 119.992 109.993 120.424 110.677 121.288C111.361 122.14 111.703 123.4 111.703 125.068C111.703 126.184 111.541 127.126 111.217 127.894C110.893 128.65 110.449 129.22 109.885 129.604C109.321 129.988 108.667 130.18 107.923 130.18C107.455 130.18 107.047 130.12 106.699 130C106.363 129.88 106.075 129.724 105.835 129.532C105.595 129.34 105.385 129.136 105.205 128.92H105.061C105.109 129.148 105.145 129.388 105.169 129.64C105.193 129.88 105.205 130.12 105.205 130.36V134.32H102.523V120.172H104.701L105.079 121.45H105.205C105.385 121.186 105.601 120.946 105.853 120.73C106.105 120.502 106.405 120.322 106.753 120.19C107.113 120.058 107.527 119.992 107.995 119.992ZM107.131 122.134C106.663 122.134 106.291 122.23 106.015 122.422C105.739 122.614 105.535 122.908 105.403 123.304C105.283 123.688 105.217 124.174 105.205 124.762V125.05C105.205 125.686 105.265 126.226 105.385 126.67C105.505 127.102 105.709 127.432 105.997 127.66C106.285 127.888 106.675 128.002 107.167 128.002C107.575 128.002 107.911 127.888 108.175 127.66C108.439 127.432 108.637 127.096 108.769 126.652C108.901 126.208 108.967 125.668 108.967 125.032C108.967 124.072 108.817 123.352 108.517 122.872C108.229 122.38 107.767 122.134 107.131 122.134Z" fill="white"/>
<path d="M45.36 166H43.632V156.064H40.208V154.576H48.784V156.064H45.36V166ZM53.8028 157.216C53.9521 157.216 54.1174 157.227 54.2988 157.248C54.4801 157.259 54.6294 157.275 54.7468 157.296L54.5708 158.88C54.4534 158.848 54.3148 158.821 54.1548 158.8C53.9948 158.779 53.8454 158.768 53.7068 158.768C53.3868 158.768 53.0774 158.832 52.7788 158.96C52.4908 159.077 52.2294 159.253 51.9948 159.488C51.7601 159.712 51.5734 159.989 51.4348 160.32C51.3068 160.651 51.2428 161.029 51.2428 161.456V166H49.5468V157.376H50.8908L51.1148 158.912H51.1788C51.3601 158.603 51.5788 158.32 51.8348 158.064C52.0908 157.808 52.3841 157.605 52.7148 157.456C53.0454 157.296 53.4081 157.216 53.8028 157.216ZM59.3751 157.216C60.4631 157.216 61.2738 157.456 61.8071 157.936C62.3405 158.405 62.6071 159.147 62.6071 160.16V166H61.4071L61.0711 164.8H61.0071C60.7618 165.109 60.5058 165.365 60.2391 165.568C59.9831 165.771 59.6845 165.92 59.3431 166.016C59.0125 166.112 58.6071 166.16 58.1271 166.16C57.6151 166.16 57.1511 166.069 56.7351 165.888C56.3298 165.696 56.0098 165.408 55.7751 165.024C55.5405 164.629 55.4231 164.139 55.4231 163.552C55.4231 162.677 55.7538 162.011 56.4151 161.552C57.0871 161.093 58.1058 160.843 59.4711 160.8L60.9431 160.752V160.272C60.9431 159.632 60.7991 159.184 60.5111 158.928C60.2231 158.672 59.8178 158.544 59.2951 158.544C58.8471 158.544 58.4205 158.608 58.0151 158.736C57.6098 158.864 57.2258 159.019 56.8631 159.2L56.3191 157.968C56.7245 157.755 57.1885 157.579 57.7111 157.44C58.2445 157.291 58.7991 157.216 59.3751 157.216ZM59.7751 161.888C58.7938 161.931 58.1111 162.096 57.7271 162.384C57.3538 162.661 57.1671 163.056 57.1671 163.568C57.1671 164.016 57.3005 164.341 57.5671 164.544C57.8445 164.747 58.1911 164.848 58.6071 164.848C59.2791 164.848 59.8338 164.661 60.2711 164.288C60.7085 163.915 60.9271 163.355 60.9271 162.608V161.856L59.7751 161.888ZM69.5866 157.216C70.5893 157.216 71.3573 157.467 71.8906 157.968C72.424 158.469 72.6906 159.275 72.6906 160.384V166H71.0106V160.624C71.0106 159.952 70.8666 159.451 70.5786 159.12C70.3013 158.779 69.8533 158.608 69.2346 158.608C68.36 158.608 67.752 158.869 67.4106 159.392C67.08 159.915 66.9146 160.667 66.9146 161.648V166H65.2186V157.376H66.5626L66.8026 158.528H66.8986C67.0906 158.229 67.3253 157.984 67.6026 157.792C67.88 157.6 68.1893 157.456 68.5306 157.36C68.872 157.264 69.224 157.216 69.5866 157.216ZM81.0248 163.568C81.0248 164.133 80.8861 164.608 80.6088 164.992C80.3314 165.376 79.9314 165.669 79.4088 165.872C78.8861 166.064 78.2568 166.16 77.5208 166.16C76.9128 166.16 76.3901 166.112 75.9528 166.016C75.5261 165.931 75.1314 165.803 74.7688 165.632V164.144C75.1528 164.325 75.5954 164.491 76.0968 164.64C76.5981 164.779 77.0888 164.848 77.5688 164.848C78.2088 164.848 78.6674 164.747 78.9448 164.544C79.2328 164.341 79.3768 164.069 79.3768 163.728C79.3768 163.536 79.3234 163.365 79.2168 163.216C79.1101 163.056 78.9074 162.896 78.6088 162.736C78.3208 162.565 77.8941 162.373 77.3288 162.16C76.7848 161.936 76.3208 161.717 75.9368 161.504C75.5528 161.28 75.2594 161.019 75.0568 160.72C74.8541 160.411 74.7528 160.016 74.7528 159.536C74.7528 158.789 75.0514 158.219 75.6488 157.824C76.2568 157.419 77.0568 157.216 78.0488 157.216C78.5714 157.216 79.0621 157.269 79.5208 157.376C79.9901 157.472 80.4434 157.621 80.8808 157.824L80.3208 159.12C80.0754 159.003 79.8194 158.907 79.5528 158.832C79.2968 158.747 79.0354 158.677 78.7688 158.624C78.5128 158.571 78.2461 158.544 77.9688 158.544C77.4568 158.544 77.0674 158.624 76.8008 158.784C76.5341 158.944 76.4008 159.168 76.4008 159.456C76.4008 159.659 76.4594 159.835 76.5768 159.984C76.7048 160.133 76.9234 160.283 77.2328 160.432C77.5421 160.581 77.9634 160.763 78.4968 160.976C79.0301 161.179 79.4834 161.387 79.8568 161.6C80.2408 161.813 80.5288 162.075 80.7208 162.384C80.9234 162.693 81.0248 163.088 81.0248 163.568ZM87.2548 158.672H85.1268V166H83.4308V158.672H81.9748V157.872L83.4308 157.344V156.8C83.4308 156.064 83.5428 155.477 83.7668 155.04C84.0014 154.592 84.3321 154.267 84.7588 154.064C85.1854 153.861 85.7028 153.76 86.3108 153.76C86.6841 153.76 87.0254 153.792 87.3348 153.856C87.6441 153.92 87.9054 153.989 88.1188 154.064L87.6868 155.36C87.5161 155.307 87.3188 155.259 87.0948 155.216C86.8708 155.163 86.6361 155.136 86.3908 155.136C85.9641 155.136 85.6441 155.275 85.4308 155.552C85.2281 155.829 85.1268 156.251 85.1268 156.816V157.376H87.2548V158.672ZM96.3655 161.68C96.3655 162.395 96.2695 163.029 96.0775 163.584C95.8855 164.139 95.6135 164.608 95.2615 164.992C94.9095 165.376 94.4828 165.669 93.9815 165.872C93.4802 166.064 92.9148 166.16 92.2855 166.16C91.7095 166.16 91.1762 166.064 90.6855 165.872C90.1948 165.669 89.7682 165.376 89.4055 164.992C89.0535 164.608 88.7762 164.139 88.5735 163.584C88.3708 163.029 88.2695 162.389 88.2695 161.664C88.2695 160.715 88.4295 159.909 88.7495 159.248C89.0802 158.587 89.5495 158.085 90.1575 157.744C90.7762 157.392 91.5015 157.216 92.3335 157.216C93.1228 157.216 93.8162 157.392 94.4135 157.744C95.0215 158.085 95.4962 158.587 95.8375 159.248C96.1895 159.909 96.3655 160.72 96.3655 161.68ZM90.0135 161.68C90.0135 162.32 90.0935 162.875 90.2535 163.344C90.4135 163.803 90.6642 164.155 91.0055 164.4C91.3468 164.645 91.7842 164.768 92.3175 164.768C92.8508 164.768 93.2882 164.645 93.6295 164.4C93.9708 164.155 94.2215 163.803 94.3815 163.344C94.5415 162.875 94.6215 162.32 94.6215 161.68C94.6215 161.019 94.5362 160.464 94.3655 160.016C94.2055 159.568 93.9548 159.227 93.6135 158.992C93.2828 158.747 92.8455 158.624 92.3015 158.624C91.5015 158.624 90.9202 158.891 90.5575 159.424C90.1948 159.957 90.0135 160.709 90.0135 161.68ZM102.772 157.216C102.921 157.216 103.086 157.227 103.268 157.248C103.449 157.259 103.598 157.275 103.716 157.296L103.54 158.88C103.422 158.848 103.284 158.821 103.124 158.8C102.964 158.779 102.814 158.768 102.676 158.768C102.356 158.768 102.046 158.832 101.748 158.96C101.46 159.077 101.198 159.253 100.964 159.488C100.729 159.712 100.542 159.989 100.404 160.32C100.276 160.651 100.212 161.029 100.212 161.456V166H98.5155V157.376H99.8595L100.084 158.912H100.148C100.329 158.603 100.548 158.32 100.804 158.064C101.06 157.808 101.353 157.605 101.684 157.456C102.014 157.296 102.377 157.216 102.772 157.216ZM114.976 157.216C115.947 157.216 116.678 157.467 117.168 157.968C117.659 158.469 117.904 159.275 117.904 160.384V166H116.208V160.608C116.208 159.947 116.075 159.451 115.808 159.12C115.552 158.779 115.147 158.608 114.592 158.608C113.824 158.608 113.275 158.848 112.944 159.328C112.614 159.797 112.448 160.48 112.448 161.376V166H110.768V160.608C110.768 160.171 110.704 159.803 110.576 159.504C110.459 159.205 110.283 158.981 110.048 158.832C109.814 158.683 109.51 158.608 109.136 158.608C108.603 158.608 108.182 158.725 107.872 158.96C107.563 159.195 107.339 159.541 107.2 160C107.072 160.448 107.008 160.997 107.008 161.648V166H105.312V157.376H106.656L106.896 158.528H106.992C107.174 158.229 107.392 157.984 107.648 157.792C107.915 157.6 108.208 157.456 108.528 157.36C108.848 157.264 109.179 157.216 109.52 157.216C110.171 157.216 110.72 157.333 111.168 157.568C111.616 157.792 111.942 158.139 112.144 158.608H112.272C112.55 158.128 112.934 157.776 113.424 157.552C113.915 157.328 114.432 157.216 114.976 157.216ZM127.616 166.16C126.581 166.16 125.744 165.787 125.104 165.04C124.475 164.293 124.16 163.184 124.16 161.712C124.16 160.229 124.48 159.109 125.12 158.352C125.76 157.595 126.603 157.216 127.648 157.216C128.085 157.216 128.464 157.275 128.784 157.392C129.115 157.499 129.397 157.648 129.632 157.84C129.877 158.032 130.085 158.245 130.256 158.48H130.352C130.331 158.331 130.304 158.117 130.272 157.84C130.24 157.552 130.224 157.296 130.224 157.072V153.84H131.92V166H130.592L130.304 164.848H130.224C130.064 165.093 129.861 165.317 129.616 165.52C129.381 165.712 129.099 165.867 128.768 165.984C128.437 166.101 128.053 166.16 127.616 166.16ZM128.016 164.768C128.848 164.768 129.435 164.539 129.776 164.08C130.117 163.611 130.288 162.912 130.288 161.984V161.728C130.288 160.715 130.123 159.941 129.792 159.408C129.472 158.875 128.875 158.608 128 158.608C127.307 158.608 126.784 158.891 126.432 159.456C126.08 160.011 125.904 160.773 125.904 161.744C125.904 162.715 126.08 163.461 126.432 163.984C126.784 164.507 127.312 164.768 128.016 164.768ZM137.97 157.216C138.727 157.216 139.378 157.376 139.922 157.696C140.466 158.005 140.882 158.453 141.17 159.04C141.469 159.627 141.618 160.32 141.618 161.12V162.048H135.826C135.847 162.933 136.077 163.611 136.514 164.08C136.962 164.549 137.586 164.784 138.386 164.784C138.941 164.784 139.431 164.736 139.858 164.64C140.295 164.533 140.743 164.379 141.202 164.176V165.584C140.775 165.776 140.338 165.92 139.89 166.016C139.453 166.112 138.93 166.16 138.322 166.16C137.49 166.16 136.754 165.995 136.114 165.664C135.474 165.333 134.973 164.843 134.61 164.192C134.258 163.531 134.082 162.72 134.082 161.76C134.082 160.789 134.242 159.968 134.562 159.296C134.893 158.624 135.346 158.112 135.922 157.76C136.509 157.397 137.191 157.216 137.97 157.216ZM137.97 158.528C137.362 158.528 136.871 158.725 136.498 159.12C136.135 159.515 135.922 160.075 135.858 160.8H139.922C139.922 160.352 139.853 159.957 139.714 159.616C139.575 159.275 139.362 159.008 139.074 158.816C138.786 158.624 138.418 158.528 137.97 158.528ZM149.462 163.568C149.462 164.133 149.324 164.608 149.046 164.992C148.769 165.376 148.369 165.669 147.846 165.872C147.324 166.064 146.694 166.16 145.958 166.16C145.35 166.16 144.828 166.112 144.39 166.016C143.964 165.931 143.569 165.803 143.206 165.632V164.144C143.59 164.325 144.033 164.491 144.534 164.64C145.036 164.779 145.526 164.848 146.006 164.848C146.646 164.848 147.105 164.747 147.382 164.544C147.67 164.341 147.814 164.069 147.814 163.728C147.814 163.536 147.761 163.365 147.654 163.216C147.548 163.056 147.345 162.896 147.046 162.736C146.758 162.565 146.332 162.373 145.766 162.16C145.222 161.936 144.758 161.717 144.374 161.504C143.99 161.28 143.697 161.019 143.494 160.72C143.292 160.411 143.19 160.016 143.19 159.536C143.19 158.789 143.489 158.219 144.086 157.824C144.694 157.419 145.494 157.216 146.486 157.216C147.009 157.216 147.5 157.269 147.958 157.376C148.428 157.472 148.881 157.621 149.318 157.824L148.758 159.12C148.513 159.003 148.257 158.907 147.99 158.832C147.734 158.747 147.473 158.677 147.206 158.624C146.95 158.571 146.684 158.544 146.406 158.544C145.894 158.544 145.505 158.624 145.238 158.784C144.972 158.944 144.838 159.168 144.838 159.456C144.838 159.659 144.897 159.835 145.014 159.984C145.142 160.133 145.361 160.283 145.67 160.432C145.98 160.581 146.401 160.763 146.934 160.976C147.468 161.179 147.921 161.387 148.294 161.6C148.678 161.813 148.966 162.075 149.158 162.384C149.361 162.693 149.462 163.088 149.462 163.568ZM153.18 157.376V166H151.484V157.376H153.18ZM152.348 154.096C152.604 154.096 152.828 154.171 153.02 154.32C153.212 154.469 153.308 154.72 153.308 155.072C153.308 155.413 153.212 155.664 153.02 155.824C152.828 155.973 152.604 156.048 152.348 156.048C152.071 156.048 151.836 155.973 151.644 155.824C151.463 155.664 151.372 155.413 151.372 155.072C151.372 154.72 151.463 154.469 151.644 154.32C151.836 154.171 152.071 154.096 152.348 154.096ZM158.82 157.216C159.374 157.216 159.876 157.323 160.324 157.536C160.772 157.749 161.15 158.075 161.46 158.512H161.54L161.732 157.376H163.108V166.112C163.108 166.923 162.964 167.605 162.676 168.16C162.388 168.715 161.945 169.131 161.348 169.408C160.761 169.696 160.02 169.84 159.124 169.84C158.505 169.84 157.934 169.797 157.412 169.712C156.889 169.627 156.409 169.493 155.972 169.312V167.824C156.281 167.973 156.606 168.096 156.948 168.192C157.289 168.299 157.652 168.373 158.036 168.416C158.42 168.469 158.814 168.496 159.22 168.496C159.924 168.496 160.468 168.293 160.852 167.888C161.236 167.493 161.428 166.933 161.428 166.208V165.92C161.428 165.781 161.433 165.6 161.444 165.376C161.454 165.141 161.465 164.971 161.476 164.864H161.412C161.113 165.312 160.745 165.643 160.308 165.856C159.881 166.059 159.385 166.16 158.82 166.16C157.732 166.16 156.878 165.771 156.26 164.992C155.652 164.203 155.348 163.109 155.348 161.712C155.348 160.773 155.486 159.973 155.764 159.312C156.041 158.64 156.436 158.123 156.948 157.76C157.47 157.397 158.094 157.216 158.82 157.216ZM159.172 158.624C158.724 158.624 158.345 158.747 158.036 158.992C157.726 159.227 157.492 159.573 157.332 160.032C157.172 160.491 157.092 161.056 157.092 161.728C157.092 162.731 157.268 163.493 157.62 164.016C157.982 164.539 158.51 164.8 159.204 164.8C159.609 164.8 159.95 164.747 160.228 164.64C160.516 164.533 160.75 164.368 160.932 164.144C161.124 163.92 161.262 163.637 161.348 163.296C161.444 162.944 161.492 162.523 161.492 162.032V161.712C161.492 160.976 161.406 160.384 161.236 159.936C161.076 159.477 160.825 159.147 160.484 158.944C160.142 158.731 159.705 158.624 159.172 158.624ZM170.134 157.216C171.136 157.216 171.904 157.467 172.438 157.968C172.971 158.469 173.238 159.275 173.238 160.384V166H171.558V160.624C171.558 159.952 171.414 159.451 171.126 159.12C170.848 158.779 170.4 158.608 169.782 158.608C168.907 158.608 168.299 158.869 167.958 159.392C167.627 159.915 167.462 160.667 167.462 161.648V166H165.766V157.376H167.11L167.35 158.528H167.446C167.638 158.229 167.872 157.984 168.15 157.792C168.427 157.6 168.736 157.456 169.078 157.36C169.419 157.264 169.771 157.216 170.134 157.216ZM183.344 157.216C184.432 157.216 185.243 157.456 185.776 157.936C186.309 158.405 186.576 159.147 186.576 160.16V166H185.376L185.04 164.8H184.976C184.731 165.109 184.475 165.365 184.208 165.568C183.952 165.771 183.653 165.92 183.312 166.016C182.981 166.112 182.576 166.16 182.096 166.16C181.584 166.16 181.12 166.069 180.704 165.888C180.299 165.696 179.979 165.408 179.744 165.024C179.509 164.629 179.392 164.139 179.392 163.552C179.392 162.677 179.723 162.011 180.384 161.552C181.056 161.093 182.075 160.843 183.44 160.8L184.912 160.752V160.272C184.912 159.632 184.768 159.184 184.48 158.928C184.192 158.672 183.787 158.544 183.264 158.544C182.816 158.544 182.389 158.608 181.984 158.736C181.579 158.864 181.195 159.019 180.832 159.2L180.288 157.968C180.693 157.755 181.157 157.579 181.68 157.44C182.213 157.291 182.768 157.216 183.344 157.216ZM183.744 161.888C182.763 161.931 182.08 162.096 181.696 162.384C181.323 162.661 181.136 163.056 181.136 163.568C181.136 164.016 181.269 164.341 181.536 164.544C181.813 164.747 182.16 164.848 182.576 164.848C183.248 164.848 183.803 164.661 184.24 164.288C184.677 163.915 184.896 163.355 184.896 162.608V161.856L183.744 161.888ZM193.555 157.216C194.558 157.216 195.326 157.467 195.859 157.968C196.393 158.469 196.659 159.275 196.659 160.384V166H194.979V160.624C194.979 159.952 194.835 159.451 194.547 159.12C194.27 158.779 193.822 158.608 193.203 158.608C192.329 158.608 191.721 158.869 191.379 159.392C191.049 159.915 190.883 160.667 190.883 161.648V166H189.187V157.376H190.531L190.771 158.528H190.867C191.059 158.229 191.294 157.984 191.571 157.792C191.849 157.6 192.158 157.456 192.499 157.36C192.841 157.264 193.193 157.216 193.555 157.216ZM202.226 166.16C201.191 166.16 200.354 165.787 199.714 165.04C199.084 164.293 198.77 163.184 198.77 161.712C198.77 160.229 199.09 159.109 199.73 158.352C200.37 157.595 201.212 157.216 202.258 157.216C202.695 157.216 203.074 157.275 203.394 157.392C203.724 157.499 204.007 157.648 204.242 157.84C204.487 158.032 204.695 158.245 204.866 158.48H204.962C204.94 158.331 204.914 158.117 204.882 157.84C204.85 157.552 204.834 157.296 204.834 157.072V153.84H206.53V166H205.202L204.914 164.848H204.834C204.674 165.093 204.471 165.317 204.226 165.52C203.991 165.712 203.708 165.867 203.378 165.984C203.047 166.101 202.663 166.16 202.226 166.16ZM202.626 164.768C203.458 164.768 204.044 164.539 204.386 164.08C204.727 163.611 204.898 162.912 204.898 161.984V161.728C204.898 160.715 204.732 159.941 204.402 159.408C204.082 158.875 203.484 158.608 202.61 158.608C201.916 158.608 201.394 158.891 201.042 159.456C200.69 160.011 200.514 160.773 200.514 161.744C200.514 162.715 200.69 163.461 201.042 163.984C201.394 164.507 201.922 164.768 202.626 164.768ZM219.168 161.68C219.114 161.467 219.05 161.232 218.976 160.976C218.912 160.72 218.848 160.464 218.784 160.208C218.72 159.941 218.661 159.696 218.608 159.472C218.554 159.248 218.512 159.072 218.48 158.944H218.416C218.394 159.072 218.357 159.248 218.304 159.472C218.261 159.696 218.208 159.941 218.144 160.208C218.08 160.464 218.016 160.725 217.952 160.992C217.888 161.248 217.818 161.483 217.744 161.696L216.464 165.984H214.576L212.192 157.36H213.92L215.04 161.728C215.125 162.027 215.2 162.341 215.264 162.672C215.338 163.003 215.402 163.323 215.456 163.632C215.52 163.931 215.562 164.181 215.584 164.384H215.648C215.669 164.245 215.701 164.075 215.744 163.872C215.786 163.659 215.829 163.44 215.872 163.216C215.925 162.981 215.973 162.757 216.016 162.544C216.069 162.331 216.122 162.155 216.176 162.016L217.552 157.36H219.408L220.752 162.016C220.816 162.229 220.885 162.485 220.96 162.784C221.034 163.072 221.098 163.36 221.152 163.648C221.216 163.925 221.258 164.165 221.28 164.368H221.344C221.365 164.187 221.402 163.952 221.456 163.664C221.509 163.365 221.573 163.045 221.648 162.704C221.733 162.363 221.813 162.037 221.888 161.728L223.04 157.36H224.752L222.336 165.984H220.4L219.168 161.68ZM230.506 157.216C230.655 157.216 230.821 157.227 231.002 157.248C231.183 157.259 231.333 157.275 231.45 157.296L231.274 158.88C231.157 158.848 231.018 158.821 230.858 158.8C230.698 158.779 230.549 158.768 230.41 158.768C230.09 158.768 229.781 158.832 229.482 158.96C229.194 159.077 228.933 159.253 228.698 159.488C228.463 159.712 228.277 159.989 228.138 160.32C228.01 160.651 227.946 161.029 227.946 161.456V166H226.25V157.376H227.594L227.818 158.912H227.882C228.063 158.603 228.282 158.32 228.538 158.064C228.794 157.808 229.087 157.605 229.418 157.456C229.749 157.296 230.111 157.216 230.506 157.216ZM234.743 157.376V166H233.047V157.376H234.743ZM233.911 154.096C234.167 154.096 234.391 154.171 234.583 154.32C234.775 154.469 234.871 154.72 234.871 155.072C234.871 155.413 234.775 155.664 234.583 155.824C234.391 155.973 234.167 156.048 233.911 156.048C233.633 156.048 233.399 155.973 233.207 155.824C233.025 155.664 232.935 155.413 232.935 155.072C232.935 154.72 233.025 154.469 233.207 154.32C233.399 154.171 233.633 154.096 233.911 154.096ZM240.51 164.784C240.734 164.784 240.963 164.763 241.198 164.72C241.433 164.677 241.635 164.629 241.806 164.576V165.856C241.625 165.941 241.379 166.011 241.07 166.064C240.761 166.128 240.451 166.16 240.142 166.16C239.673 166.16 239.241 166.08 238.846 165.92C238.462 165.76 238.153 165.483 237.918 165.088C237.683 164.693 237.566 164.144 237.566 163.44V158.672H236.366V157.904L237.63 157.264L238.222 155.44H239.262V157.376H241.726V158.672H239.262V163.408C239.262 163.877 239.374 164.224 239.598 164.448C239.833 164.672 240.137 164.784 240.51 164.784ZM246.923 157.216C247.68 157.216 248.331 157.376 248.875 157.696C249.419 158.005 249.835 158.453 250.123 159.04C250.422 159.627 250.571 160.32 250.571 161.12V162.048H244.779C244.8 162.933 245.03 163.611 245.467 164.08C245.915 164.549 246.539 164.784 247.339 164.784C247.894 164.784 248.384 164.736 248.811 164.64C249.248 164.533 249.696 164.379 250.155 164.176V165.584C249.728 165.776 249.291 165.92 248.843 166.016C248.406 166.112 247.883 166.16 247.275 166.16C246.443 166.16 245.707 165.995 245.067 165.664C244.427 165.333 243.926 164.843 243.563 164.192C243.211 163.531 243.035 162.72 243.035 161.76C243.035 160.789 243.195 159.968 243.515 159.296C243.846 158.624 244.299 158.112 244.875 157.76C245.462 157.397 246.144 157.216 246.923 157.216ZM246.923 158.528C246.315 158.528 245.824 158.725 245.451 159.12C245.088 159.515 244.875 160.075 244.811 160.8H248.875C248.875 160.352 248.806 159.957 248.667 159.616C248.528 159.275 248.315 159.008 248.027 158.816C247.739 158.624 247.371 158.528 246.923 158.528ZM43.024 188.768C43.024 189.12 43.0133 189.456 42.992 189.776C42.9813 190.085 42.9653 190.331 42.944 190.512H43.024C43.2693 190.149 43.6 189.845 44.016 189.6C44.432 189.355 44.9707 189.232 45.632 189.232C46.6667 189.232 47.4987 189.605 48.128 190.352C48.768 191.099 49.088 192.208 49.088 193.68C49.088 194.672 48.944 195.499 48.656 196.16C48.368 196.821 47.9627 197.323 47.44 197.664C46.9173 197.995 46.3093 198.16 45.616 198.16C44.944 198.16 44.4053 198.043 44 197.808C43.5947 197.563 43.2693 197.275 43.024 196.944H42.896L42.576 198H41.328V185.84H43.024V188.768ZM45.232 190.608C44.6773 190.608 44.24 190.715 43.92 190.928C43.6 191.141 43.3707 191.467 43.232 191.904C43.0933 192.341 43.024 192.896 43.024 193.568V193.696C43.024 194.688 43.184 195.451 43.504 195.984C43.824 196.507 44.4107 196.768 45.264 196.768C45.9467 196.768 46.464 196.501 46.816 195.968C47.168 195.435 47.344 194.667 47.344 193.664C47.344 192.651 47.168 191.888 46.816 191.376C46.464 190.864 45.936 190.608 45.232 190.608ZM58.6739 189.376V198H57.3139L57.0739 196.864H56.9939C56.8125 197.163 56.5779 197.408 56.2899 197.6C56.0019 197.792 55.6872 197.931 55.3459 198.016C55.0045 198.112 54.6525 198.16 54.2899 198.16C53.6179 198.16 53.0472 198.053 52.5779 197.84C52.1192 197.616 51.7672 197.275 51.5219 196.816C51.2872 196.347 51.1699 195.749 51.1699 195.024V189.376H52.8819V194.768C52.8819 195.44 53.0205 195.941 53.2979 196.272C53.5859 196.603 54.0285 196.768 54.6259 196.768C55.2232 196.768 55.6925 196.651 56.0339 196.416C56.3752 196.181 56.6152 195.84 56.7539 195.392C56.9032 194.933 56.9779 194.384 56.9779 193.744V189.376H58.6739ZM67.056 195.568C67.056 196.133 66.9173 196.608 66.64 196.992C66.3627 197.376 65.9627 197.669 65.44 197.872C64.9173 198.064 64.288 198.16 63.552 198.16C62.944 198.16 62.4213 198.112 61.984 198.016C61.5573 197.931 61.1627 197.803 60.8 197.632V196.144C61.184 196.325 61.6267 196.491 62.128 196.64C62.6293 196.779 63.12 196.848 63.6 196.848C64.24 196.848 64.6987 196.747 64.976 196.544C65.264 196.341 65.408 196.069 65.408 195.728C65.408 195.536 65.3547 195.365 65.248 195.216C65.1413 195.056 64.9387 194.896 64.64 194.736C64.352 194.565 63.9253 194.373 63.36 194.16C62.816 193.936 62.352 193.717 61.968 193.504C61.584 193.28 61.2907 193.019 61.088 192.72C60.8853 192.411 60.784 192.016 60.784 191.536C60.784 190.789 61.0827 190.219 61.68 189.824C62.288 189.419 63.088 189.216 64.08 189.216C64.6027 189.216 65.0933 189.269 65.552 189.376C66.0213 189.472 66.4747 189.621 66.912 189.824L66.352 191.12C66.1067 191.003 65.8507 190.907 65.584 190.832C65.328 190.747 65.0667 190.677 64.8 190.624C64.544 190.571 64.2773 190.544 64 190.544C63.488 190.544 63.0987 190.624 62.832 190.784C62.5653 190.944 62.432 191.168 62.432 191.456C62.432 191.659 62.4907 191.835 62.608 191.984C62.736 192.133 62.9547 192.283 63.264 192.432C63.5733 192.581 63.9947 192.763 64.528 192.976C65.0613 193.179 65.5147 193.387 65.888 193.6C66.272 193.813 66.56 194.075 66.752 194.384C66.9547 194.693 67.056 195.088 67.056 195.568ZM70.774 189.376V198H69.078V189.376H70.774ZM69.942 186.096C70.198 186.096 70.422 186.171 70.614 186.32C70.806 186.469 70.902 186.72 70.902 187.072C70.902 187.413 70.806 187.664 70.614 187.824C70.422 187.973 70.198 188.048 69.942 188.048C69.6647 188.048 69.43 187.973 69.238 187.824C69.0567 187.664 68.966 187.413 68.966 187.072C68.966 186.72 69.0567 186.469 69.238 186.32C69.43 186.171 69.6647 186.096 69.942 186.096ZM77.8054 189.216C78.808 189.216 79.576 189.467 80.1094 189.968C80.6427 190.469 80.9094 191.275 80.9094 192.384V198H79.2294V192.624C79.2294 191.952 79.0854 191.451 78.7974 191.12C78.52 190.779 78.072 190.608 77.4534 190.608C76.5787 190.608 75.9707 190.869 75.6294 191.392C75.2987 191.915 75.1334 192.667 75.1334 193.648V198H73.4374V189.376H74.7814L75.0214 190.528H75.1174C75.3094 190.229 75.544 189.984 75.8214 189.792C76.0987 189.6 76.408 189.456 76.7494 189.36C77.0907 189.264 77.4427 189.216 77.8054 189.216ZM86.9075 189.216C87.6648 189.216 88.3155 189.376 88.8595 189.696C89.4035 190.005 89.8195 190.453 90.1075 191.04C90.4062 191.627 90.5555 192.32 90.5555 193.12V194.048H84.7635C84.7848 194.933 85.0142 195.611 85.4515 196.08C85.8995 196.549 86.5235 196.784 87.3235 196.784C87.8782 196.784 88.3688 196.736 88.7955 196.64C89.2328 196.533 89.6808 196.379 90.1395 196.176V197.584C89.7128 197.776 89.2755 197.92 88.8275 198.016C88.3902 198.112 87.8675 198.16 87.2595 198.16C86.4275 198.16 85.6915 197.995 85.0515 197.664C84.4115 197.333 83.9102 196.843 83.5475 196.192C83.1955 195.531 83.0195 194.72 83.0195 193.76C83.0195 192.789 83.1795 191.968 83.4995 191.296C83.8302 190.624 84.2835 190.112 84.8595 189.76C85.4462 189.397 86.1288 189.216 86.9075 189.216ZM86.9075 190.528C86.2995 190.528 85.8088 190.725 85.4355 191.12C85.0728 191.515 84.8595 192.075 84.7955 192.8H88.8595C88.8595 192.352 88.7902 191.957 88.6515 191.616C88.5128 191.275 88.2995 191.008 88.0115 190.816C87.7235 190.624 87.3555 190.528 86.9075 190.528ZM98.3998 195.568C98.3998 196.133 98.2611 196.608 97.9838 196.992C97.7064 197.376 97.3064 197.669 96.7838 197.872C96.2611 198.064 95.6318 198.16 94.8958 198.16C94.2878 198.16 93.7651 198.112 93.3278 198.016C92.9011 197.931 92.5064 197.803 92.1438 197.632V196.144C92.5278 196.325 92.9704 196.491 93.4718 196.64C93.9731 196.779 94.4638 196.848 94.9438 196.848C95.5838 196.848 96.0424 196.747 96.3198 196.544C96.6078 196.341 96.7518 196.069 96.7518 195.728C96.7518 195.536 96.6984 195.365 96.5918 195.216C96.4851 195.056 96.2824 194.896 95.9838 194.736C95.6958 194.565 95.2691 194.373 94.7038 194.16C94.1598 193.936 93.6958 193.717 93.3118 193.504C92.9278 193.28 92.6344 193.019 92.4318 192.72C92.2291 192.411 92.1278 192.016 92.1278 191.536C92.1278 190.789 92.4264 190.219 93.0238 189.824C93.6318 189.419 94.4318 189.216 95.4238 189.216C95.9464 189.216 96.4371 189.269 96.8958 189.376C97.3651 189.472 97.8184 189.621 98.2558 189.824L97.6958 191.12C97.4504 191.003 97.1944 190.907 96.9278 190.832C96.6718 190.747 96.4104 190.677 96.1438 190.624C95.8878 190.571 95.6211 190.544 95.3438 190.544C94.8318 190.544 94.4424 190.624 94.1758 190.784C93.9091 190.944 93.7758 191.168 93.7758 191.456C93.7758 191.659 93.8344 191.835 93.9518 191.984C94.0798 192.133 94.2984 192.283 94.6078 192.432C94.9171 192.581 95.3384 192.763 95.8718 192.976C96.4051 193.179 96.8584 193.387 97.2318 193.6C97.6158 193.813 97.9038 194.075 98.0958 194.384C98.2984 194.693 98.3998 195.088 98.3998 195.568ZM106.15 195.568C106.15 196.133 106.011 196.608 105.734 196.992C105.456 197.376 105.056 197.669 104.534 197.872C104.011 198.064 103.382 198.16 102.646 198.16C102.038 198.16 101.515 198.112 101.078 198.016C100.651 197.931 100.256 197.803 99.8938 197.632V196.144C100.278 196.325 100.72 196.491 101.222 196.64C101.723 196.779 102.214 196.848 102.694 196.848C103.334 196.848 103.792 196.747 104.07 196.544C104.358 196.341 104.502 196.069 104.502 195.728C104.502 195.536 104.448 195.365 104.342 195.216C104.235 195.056 104.032 194.896 103.734 194.736C103.446 194.565 103.019 194.373 102.454 194.16C101.91 193.936 101.446 193.717 101.062 193.504C100.678 193.28 100.384 193.019 100.182 192.72C99.9791 192.411 99.8778 192.016 99.8778 191.536C99.8778 190.789 100.176 190.219 100.774 189.824C101.382 189.419 102.182 189.216 103.174 189.216C103.696 189.216 104.187 189.269 104.646 189.376C105.115 189.472 105.568 189.621 106.006 189.824L105.446 191.12C105.2 191.003 104.944 190.907 104.678 190.832C104.422 190.747 104.16 190.677 103.894 190.624C103.638 190.571 103.371 190.544 103.094 190.544C102.582 190.544 102.192 190.624 101.926 190.784C101.659 190.944 101.526 191.168 101.526 191.456C101.526 191.659 101.584 191.835 101.702 191.984C101.83 192.133 102.048 192.283 102.358 192.432C102.667 192.581 103.088 192.763 103.622 192.976C104.155 193.179 104.608 193.387 104.982 193.6C105.366 193.813 105.654 194.075 105.846 194.384C106.048 194.693 106.15 195.088 106.15 195.568ZM114.024 198H112.328V185.84H114.024V198ZM124.287 193.68C124.287 194.395 124.191 195.029 123.999 195.584C123.807 196.139 123.535 196.608 123.183 196.992C122.831 197.376 122.405 197.669 121.903 197.872C121.402 198.064 120.837 198.16 120.207 198.16C119.631 198.16 119.098 198.064 118.607 197.872C118.117 197.669 117.69 197.376 117.327 196.992C116.975 196.608 116.698 196.139 116.495 195.584C116.293 195.029 116.191 194.389 116.191 193.664C116.191 192.715 116.351 191.909 116.671 191.248C117.002 190.587 117.471 190.085 118.079 189.744C118.698 189.392 119.423 189.216 120.255 189.216C121.045 189.216 121.738 189.392 122.335 189.744C122.943 190.085 123.418 190.587 123.759 191.248C124.111 191.909 124.287 192.72 124.287 193.68ZM117.935 193.68C117.935 194.32 118.015 194.875 118.175 195.344C118.335 195.803 118.586 196.155 118.927 196.4C119.269 196.645 119.706 196.768 120.239 196.768C120.773 196.768 121.21 196.645 121.551 196.4C121.893 196.155 122.143 195.803 122.303 195.344C122.463 194.875 122.543 194.32 122.543 193.68C122.543 193.019 122.458 192.464 122.287 192.016C122.127 191.568 121.877 191.227 121.535 190.992C121.205 190.747 120.767 190.624 120.223 190.624C119.423 190.624 118.842 190.891 118.479 191.424C118.117 191.957 117.935 192.709 117.935 193.68ZM129.413 189.216C129.968 189.216 130.469 189.323 130.917 189.536C131.365 189.749 131.744 190.075 132.053 190.512H132.133L132.325 189.376H133.701V198.112C133.701 198.923 133.557 199.605 133.269 200.16C132.981 200.715 132.539 201.131 131.941 201.408C131.355 201.696 130.613 201.84 129.717 201.84C129.099 201.84 128.528 201.797 128.005 201.712C127.483 201.627 127.003 201.493 126.565 201.312V199.824C126.875 199.973 127.2 200.096 127.541 200.192C127.883 200.299 128.245 200.373 128.629 200.416C129.013 200.469 129.408 200.496 129.813 200.496C130.517 200.496 131.061 200.293 131.445 199.888C131.829 199.493 132.021 198.933 132.021 198.208V197.92C132.021 197.781 132.027 197.6 132.037 197.376C132.048 197.141 132.059 196.971 132.069 196.864H132.005C131.707 197.312 131.339 197.643 130.901 197.856C130.475 198.059 129.979 198.16 129.413 198.16C128.325 198.16 127.472 197.771 126.853 196.992C126.245 196.203 125.941 195.109 125.941 193.712C125.941 192.773 126.08 191.973 126.357 191.312C126.635 190.64 127.029 190.123 127.541 189.76C128.064 189.397 128.688 189.216 129.413 189.216ZM129.765 190.624C129.317 190.624 128.939 190.747 128.629 190.992C128.32 191.227 128.085 191.573 127.925 192.032C127.765 192.491 127.685 193.056 127.685 193.728C127.685 194.731 127.861 195.493 128.213 196.016C128.576 196.539 129.104 196.8 129.797 196.8C130.203 196.8 130.544 196.747 130.821 196.64C131.109 196.533 131.344 196.368 131.525 196.144C131.717 195.92 131.856 195.637 131.941 195.296C132.037 194.944 132.085 194.523 132.085 194.032V193.712C132.085 192.976 132 192.384 131.829 191.936C131.669 191.477 131.419 191.147 131.077 190.944C130.736 190.731 130.299 190.624 129.765 190.624ZM138.055 189.376V198H136.359V189.376H138.055ZM137.223 186.096C137.479 186.096 137.703 186.171 137.895 186.32C138.087 186.469 138.183 186.72 138.183 187.072C138.183 187.413 138.087 187.664 137.895 187.824C137.703 187.973 137.479 188.048 137.223 188.048C136.946 188.048 136.711 187.973 136.519 187.824C136.338 187.664 136.247 187.413 136.247 187.072C136.247 186.72 136.338 186.469 136.519 186.32C136.711 186.171 136.946 186.096 137.223 186.096ZM144.191 198.16C143.401 198.16 142.708 198.005 142.111 197.696C141.513 197.387 141.049 196.907 140.719 196.256C140.388 195.595 140.223 194.757 140.223 193.744C140.223 192.677 140.399 191.813 140.751 191.152C141.113 190.491 141.599 190.005 142.207 189.696C142.825 189.376 143.529 189.216 144.319 189.216C144.799 189.216 145.247 189.269 145.663 189.376C146.089 189.472 146.441 189.584 146.719 189.712L146.207 191.088C145.908 190.971 145.588 190.869 145.247 190.784C144.916 190.699 144.601 190.656 144.303 190.656C143.769 190.656 143.327 190.773 142.975 191.008C142.633 191.232 142.377 191.573 142.207 192.032C142.047 192.48 141.967 193.045 141.967 193.728C141.967 194.379 142.052 194.928 142.223 195.376C142.393 195.824 142.644 196.165 142.975 196.4C143.316 196.624 143.737 196.736 144.239 196.736C144.719 196.736 145.14 196.683 145.503 196.576C145.865 196.469 146.207 196.331 146.527 196.16V197.632C146.217 197.813 145.881 197.947 145.519 198.032C145.156 198.117 144.713 198.16 144.191 198.16ZM154.415 189.088C154.415 189.355 154.404 189.621 154.383 189.888C154.361 190.155 154.34 190.373 154.319 190.544H154.431C154.612 190.245 154.836 190 155.103 189.808C155.38 189.616 155.684 189.472 156.015 189.376C156.356 189.28 156.703 189.232 157.055 189.232C157.737 189.232 158.308 189.344 158.767 189.568C159.236 189.781 159.588 190.123 159.823 190.592C160.068 191.051 160.191 191.648 160.191 192.384V198H158.511V192.624C158.511 191.952 158.367 191.451 158.079 191.12C157.801 190.779 157.353 190.608 156.735 190.608C156.148 190.608 155.684 190.725 155.343 190.96C155.012 191.195 154.772 191.541 154.623 192C154.484 192.448 154.415 193.003 154.415 193.664V198H152.719V185.84H154.415V189.088ZM166.189 189.216C166.946 189.216 167.597 189.376 168.141 189.696C168.685 190.005 169.101 190.453 169.389 191.04C169.687 191.627 169.837 192.32 169.837 193.12V194.048H164.045C164.066 194.933 164.295 195.611 164.733 196.08C165.181 196.549 165.805 196.784 166.605 196.784C167.159 196.784 167.65 196.736 168.077 196.64C168.514 196.533 168.962 196.379 169.421 196.176V197.584C168.994 197.776 168.557 197.92 168.109 198.016C167.671 198.112 167.149 198.16 166.541 198.16C165.709 198.16 164.973 197.995 164.333 197.664C163.693 197.333 163.191 196.843 162.829 196.192C162.477 195.531 162.301 194.72 162.301 193.76C162.301 192.789 162.461 191.968 162.781 191.296C163.111 190.624 163.565 190.112 164.141 189.76C164.727 189.397 165.41 189.216 166.189 189.216ZM166.189 190.528C165.581 190.528 165.09 190.725 164.717 191.12C164.354 191.515 164.141 192.075 164.077 192.8H168.141C168.141 192.352 168.071 191.957 167.933 191.616C167.794 191.275 167.581 191.008 167.293 190.816C167.005 190.624 166.637 190.528 166.189 190.528ZM176.209 189.216C176.358 189.216 176.524 189.227 176.705 189.248C176.886 189.259 177.036 189.275 177.153 189.296L176.977 190.88C176.86 190.848 176.721 190.821 176.561 190.8C176.401 190.779 176.252 190.768 176.113 190.768C175.793 190.768 175.484 190.832 175.185 190.96C174.897 191.077 174.636 191.253 174.401 191.488C174.166 191.712 173.98 191.989 173.841 192.32C173.713 192.651 173.649 193.029 173.649 193.456V198H171.953V189.376H173.297L173.521 190.912H173.585C173.766 190.603 173.985 190.32 174.241 190.064C174.497 189.808 174.79 189.605 175.121 189.456C175.452 189.296 175.814 189.216 176.209 189.216ZM181.829 189.216C182.587 189.216 183.237 189.376 183.781 189.696C184.325 190.005 184.741 190.453 185.029 191.04C185.328 191.627 185.477 192.32 185.477 193.12V194.048H179.685C179.707 194.933 179.936 195.611 180.373 196.08C180.821 196.549 181.445 196.784 182.245 196.784C182.8 196.784 183.291 196.736 183.717 196.64C184.155 196.533 184.603 196.379 185.061 196.176V197.584C184.635 197.776 184.197 197.92 183.749 198.016C183.312 198.112 182.789 198.16 182.181 198.16C181.349 198.16 180.613 197.995 179.973 197.664C179.333 197.333 178.832 196.843 178.469 196.192C178.117 195.531 177.941 194.72 177.941 193.76C177.941 192.789 178.101 191.968 178.421 191.296C178.752 190.624 179.205 190.112 179.781 189.76C180.368 189.397 181.051 189.216 181.829 189.216ZM181.829 190.528C181.221 190.528 180.731 190.725 180.357 191.12C179.995 191.515 179.781 192.075 179.717 192.8H183.781C183.781 192.352 183.712 191.957 183.573 191.616C183.435 191.275 183.221 191.008 182.933 190.816C182.645 190.624 182.277 190.528 181.829 190.528ZM187.354 197.056C187.354 196.64 187.46 196.347 187.674 196.176C187.887 196.005 188.143 195.92 188.442 195.92C188.751 195.92 189.012 196.005 189.226 196.176C189.439 196.347 189.546 196.64 189.546 197.056C189.546 197.472 189.439 197.771 189.226 197.952C189.012 198.133 188.751 198.224 188.442 198.224C188.143 198.224 187.887 198.133 187.674 197.952C187.46 197.771 187.354 197.472 187.354 197.056ZM201.197 187.904C200.632 187.904 200.125 188.005 199.677 188.208C199.229 188.4 198.845 188.688 198.525 189.072C198.216 189.456 197.976 189.92 197.805 190.464C197.645 191.008 197.565 191.621 197.565 192.304C197.565 193.2 197.698 193.979 197.965 194.64C198.232 195.291 198.632 195.792 199.165 196.144C199.698 196.496 200.37 196.672 201.181 196.672C201.672 196.672 202.141 196.629 202.589 196.544C203.048 196.448 203.512 196.325 203.981 196.176V197.664C203.533 197.835 203.074 197.957 202.605 198.032C202.136 198.117 201.592 198.16 200.973 198.16C199.81 198.16 198.84 197.92 198.061 197.44C197.293 196.96 196.717 196.277 196.333 195.392C195.949 194.507 195.757 193.472 195.757 192.288C195.757 191.424 195.874 190.635 196.109 189.92C196.354 189.195 196.706 188.571 197.165 188.048C197.624 187.525 198.189 187.125 198.861 186.848C199.544 186.56 200.328 186.416 201.213 186.416C201.789 186.416 202.354 186.48 202.909 186.608C203.464 186.725 203.965 186.896 204.413 187.12L203.773 188.56C203.4 188.389 202.994 188.24 202.557 188.112C202.13 187.973 201.677 187.904 201.197 187.904ZM207.946 189.088C207.946 189.355 207.935 189.621 207.914 189.888C207.893 190.155 207.871 190.373 207.85 190.544H207.962C208.143 190.245 208.367 190 208.634 189.808C208.911 189.616 209.215 189.472 209.546 189.376C209.887 189.28 210.234 189.232 210.586 189.232C211.269 189.232 211.839 189.344 212.298 189.568C212.767 189.781 213.119 190.123 213.354 190.592C213.599 191.051 213.722 191.648 213.722 192.384V198H212.042V192.624C212.042 191.952 211.898 191.451 211.61 191.12C211.333 190.779 210.885 190.608 210.266 190.608C209.679 190.608 209.215 190.725 208.874 190.96C208.543 191.195 208.303 191.541 208.154 192C208.015 192.448 207.946 193.003 207.946 193.664V198H206.25V185.84H207.946V189.088ZM223.928 193.68C223.928 194.395 223.832 195.029 223.64 195.584C223.448 196.139 223.176 196.608 222.824 196.992C222.472 197.376 222.045 197.669 221.544 197.872C221.043 198.064 220.477 198.16 219.848 198.16C219.272 198.16 218.739 198.064 218.248 197.872C217.757 197.669 217.331 197.376 216.968 196.992C216.616 196.608 216.339 196.139 216.136 195.584C215.933 195.029 215.832 194.389 215.832 193.664C215.832 192.715 215.992 191.909 216.312 191.248C216.643 190.587 217.112 190.085 217.72 189.744C218.339 189.392 219.064 189.216 219.896 189.216C220.685 189.216 221.379 189.392 221.976 189.744C222.584 190.085 223.059 190.587 223.4 191.248C223.752 191.909 223.928 192.72 223.928 193.68ZM217.576 193.68C217.576 194.32 217.656 194.875 217.816 195.344C217.976 195.803 218.227 196.155 218.568 196.4C218.909 196.645 219.347 196.768 219.88 196.768C220.413 196.768 220.851 196.645 221.192 196.4C221.533 196.155 221.784 195.803 221.944 195.344C222.104 194.875 222.184 194.32 222.184 193.68C222.184 193.019 222.099 192.464 221.928 192.016C221.768 191.568 221.517 191.227 221.176 190.992C220.845 190.747 220.408 190.624 219.864 190.624C219.064 190.624 218.483 190.891 218.12 191.424C217.757 191.957 217.576 192.709 217.576 193.68ZM233.678 193.68C233.678 194.395 233.582 195.029 233.39 195.584C233.198 196.139 232.926 196.608 232.574 196.992C232.222 197.376 231.795 197.669 231.294 197.872C230.793 198.064 230.227 198.16 229.598 198.16C229.022 198.16 228.489 198.064 227.998 197.872C227.507 197.669 227.081 197.376 226.718 196.992C226.366 196.608 226.089 196.139 225.886 195.584C225.683 195.029 225.582 194.389 225.582 193.664C225.582 192.715 225.742 191.909 226.062 191.248C226.393 190.587 226.862 190.085 227.47 189.744C228.089 189.392 228.814 189.216 229.646 189.216C230.435 189.216 231.129 189.392 231.726 189.744C232.334 190.085 232.809 190.587 233.15 191.248C233.502 191.909 233.678 192.72 233.678 193.68ZM227.326 193.68C227.326 194.32 227.406 194.875 227.566 195.344C227.726 195.803 227.977 196.155 228.318 196.4C228.659 196.645 229.097 196.768 229.63 196.768C230.163 196.768 230.601 196.645 230.942 196.4C231.283 196.155 231.534 195.803 231.694 195.344C231.854 194.875 231.934 194.32 231.934 193.68C231.934 193.019 231.849 192.464 231.678 192.016C231.518 191.568 231.267 191.227 230.926 190.992C230.595 190.747 230.158 190.624 229.614 190.624C228.814 190.624 228.233 190.891 227.87 191.424C227.507 191.957 227.326 192.709 227.326 193.68ZM241.556 195.568C241.556 196.133 241.417 196.608 241.14 196.992C240.863 197.376 240.463 197.669 239.94 197.872C239.417 198.064 238.788 198.16 238.052 198.16C237.444 198.16 236.921 198.112 236.484 198.016C236.057 197.931 235.663 197.803 235.3 197.632V196.144C235.684 196.325 236.127 196.491 236.628 196.64C237.129 196.779 237.62 196.848 238.1 196.848C238.74 196.848 239.199 196.747 239.476 196.544C239.764 196.341 239.908 196.069 239.908 195.728C239.908 195.536 239.855 195.365 239.748 195.216C239.641 195.056 239.439 194.896 239.14 194.736C238.852 194.565 238.425 194.373 237.86 194.16C237.316 193.936 236.852 193.717 236.468 193.504C236.084 193.28 235.791 193.019 235.588 192.72C235.385 192.411 235.284 192.016 235.284 191.536C235.284 190.789 235.583 190.219 236.18 189.824C236.788 189.419 237.588 189.216 238.58 189.216C239.103 189.216 239.593 189.269 240.052 189.376C240.521 189.472 240.975 189.621 241.412 189.824L240.852 191.12C240.607 191.003 240.351 190.907 240.084 190.832C239.828 190.747 239.567 190.677 239.3 190.624C239.044 190.571 238.777 190.544 238.5 190.544C237.988 190.544 237.599 190.624 237.332 190.784C237.065 190.944 236.932 191.168 236.932 191.456C236.932 191.659 236.991 191.835 237.108 191.984C237.236 192.133 237.455 192.283 237.764 192.432C238.073 192.581 238.495 192.763 239.028 192.976C239.561 193.179 240.015 193.387 240.388 193.6C240.772 193.813 241.06 194.075 241.252 194.384C241.455 194.693 241.556 195.088 241.556 195.568ZM246.97 189.216C247.727 189.216 248.378 189.376 248.922 189.696C249.466 190.005 249.882 190.453 250.17 191.04C250.469 191.627 250.618 192.32 250.618 193.12V194.048H244.826C244.847 194.933 245.077 195.611 245.514 196.08C245.962 196.549 246.586 196.784 247.386 196.784C247.941 196.784 248.431 196.736 248.858 196.64C249.295 196.533 249.743 196.379 250.202 196.176V197.584C249.775 197.776 249.338 197.92 248.89 198.016C248.453 198.112 247.93 198.16 247.322 198.16C246.49 198.16 245.754 197.995 245.114 197.664C244.474 197.333 243.973 196.843 243.61 196.192C243.258 195.531 243.082 194.72 243.082 193.76C243.082 192.789 243.242 191.968 243.562 191.296C243.893 190.624 244.346 190.112 244.922 189.76C245.509 189.397 246.191 189.216 246.97 189.216ZM246.97 190.528C246.362 190.528 245.871 190.725 245.498 191.12C245.135 191.515 244.922 192.075 244.858 192.8H248.922C248.922 192.352 248.853 191.957 248.714 191.616C248.575 191.275 248.362 191.008 248.074 190.816C247.786 190.624 247.418 190.528 246.97 190.528ZM44.432 228.784C44.656 228.784 44.8853 228.763 45.12 228.72C45.3547 228.677 45.5573 228.629 45.728 228.576V229.856C45.5467 229.941 45.3013 230.011 44.992 230.064C44.6827 230.128 44.3733 230.16 44.064 230.16C43.5947 230.16 43.1627 230.08 42.768 229.92C42.384 229.76 42.0747 229.483 41.84 229.088C41.6053 228.693 41.488 228.144 41.488 227.44V222.672H40.288V221.904L41.552 221.264L42.144 219.44H43.184V221.376H45.648V222.672H43.184V227.408C43.184 227.877 43.296 228.224 43.52 228.448C43.7547 228.672 44.0587 228.784 44.432 228.784ZM49.149 221.088C49.149 221.355 49.1383 221.621 49.117 221.888C49.0957 222.155 49.0743 222.373 49.053 222.544H49.165C49.3463 222.245 49.5703 222 49.837 221.808C50.1143 221.616 50.4183 221.472 50.749 221.376C51.0903 221.28 51.437 221.232 51.789 221.232C52.4717 221.232 53.0423 221.344 53.501 221.568C53.9703 221.781 54.3223 222.123 54.557 222.592C54.8023 223.051 54.925 223.648 54.925 224.384V230H53.245V224.624C53.245 223.952 53.101 223.451 52.813 223.12C52.5357 222.779 52.0877 222.608 51.469 222.608C50.8823 222.608 50.4183 222.725 50.077 222.96C49.7463 223.195 49.5063 223.541 49.357 224C49.2183 224.448 49.149 225.003 49.149 225.664V230H47.453V217.84H49.149V221.088ZM60.9231 221.216C61.6805 221.216 62.3311 221.376 62.8751 221.696C63.4191 222.005 63.8351 222.453 64.1231 223.04C64.4218 223.627 64.5711 224.32 64.5711 225.12V226.048H58.7791C58.8005 226.933 59.0298 227.611 59.4671 228.08C59.9151 228.549 60.5391 228.784 61.3391 228.784C61.8938 228.784 62.3845 228.736 62.8111 228.64C63.2485 228.533 63.6965 228.379 64.1551 228.176V229.584C63.7285 229.776 63.2911 229.92 62.8431 230.016C62.4058 230.112 61.8831 230.16 61.2751 230.16C60.4431 230.16 59.7071 229.995 59.0671 229.664C58.4271 229.333 57.9258 228.843 57.5631 228.192C57.2111 227.531 57.0351 226.72 57.0351 225.76C57.0351 224.789 57.1951 223.968 57.5151 223.296C57.8458 222.624 58.2991 222.112 58.8751 221.76C59.4618 221.397 60.1445 221.216 60.9231 221.216ZM60.9231 222.528C60.3151 222.528 59.8245 222.725 59.4511 223.12C59.0885 223.515 58.8751 224.075 58.8111 224.8H62.8751C62.8751 224.352 62.8058 223.957 62.6671 223.616C62.5285 223.275 62.3151 223.008 62.0271 222.816C61.7391 222.624 61.3711 222.528 60.9231 222.528ZM73.9476 228.784C74.1716 228.784 74.401 228.763 74.6356 228.72C74.8703 228.677 75.073 228.629 75.2436 228.576V229.856C75.0623 229.941 74.817 230.011 74.5076 230.064C74.1983 230.128 73.889 230.16 73.5796 230.16C73.1103 230.16 72.6783 230.08 72.2836 229.92C71.8996 229.76 71.5903 229.483 71.3556 229.088C71.121 228.693 71.0036 228.144 71.0036 227.44V222.672H69.8036V221.904L71.0676 221.264L71.6596 219.44H72.6996V221.376H75.1636V222.672H72.6996V227.408C72.6996 227.877 72.8116 228.224 73.0356 228.448C73.2703 228.672 73.5743 228.784 73.9476 228.784ZM80.3606 221.216C81.118 221.216 81.7686 221.376 82.3126 221.696C82.8566 222.005 83.2726 222.453 83.5606 223.04C83.8593 223.627 84.0086 224.32 84.0086 225.12V226.048H78.2166C78.238 226.933 78.4673 227.611 78.9046 228.08C79.3526 228.549 79.9766 228.784 80.7766 228.784C81.3313 228.784 81.822 228.736 82.2486 228.64C82.686 228.533 83.134 228.379 83.5926 228.176V229.584C83.166 229.776 82.7286 229.92 82.2806 230.016C81.8433 230.112 81.3206 230.16 80.7126 230.16C79.8806 230.16 79.1446 229.995 78.5046 229.664C77.8646 229.333 77.3633 228.843 77.0006 228.192C76.6486 227.531 76.4726 226.72 76.4726 225.76C76.4726 224.789 76.6326 223.968 76.9526 223.296C77.2833 222.624 77.7366 222.112 78.3126 221.76C78.8993 221.397 79.582 221.216 80.3606 221.216ZM80.3606 222.528C79.7526 222.528 79.262 222.725 78.8886 223.12C78.526 223.515 78.3126 224.075 78.2486 224.8H82.3126C82.3126 224.352 82.2433 223.957 82.1046 223.616C81.966 223.275 81.7526 223.008 81.4646 222.816C81.1766 222.624 80.8086 222.528 80.3606 222.528ZM89.5969 230.16C88.8075 230.16 88.1142 230.005 87.5169 229.696C86.9195 229.387 86.4555 228.907 86.1249 228.256C85.7942 227.595 85.6289 226.757 85.6289 225.744C85.6289 224.677 85.8049 223.813 86.1569 223.152C86.5195 222.491 87.0049 222.005 87.6129 221.696C88.2315 221.376 88.9355 221.216 89.7249 221.216C90.2049 221.216 90.6529 221.269 91.0689 221.376C91.4955 221.472 91.8475 221.584 92.1249 221.712L91.6129 223.088C91.3142 222.971 90.9942 222.869 90.6529 222.784C90.3222 222.699 90.0075 222.656 89.7089 222.656C89.1755 222.656 88.7329 222.773 88.3809 223.008C88.0395 223.232 87.7835 223.573 87.6129 224.032C87.4529 224.48 87.3729 225.045 87.3729 225.728C87.3729 226.379 87.4582 226.928 87.6289 227.376C87.7995 227.824 88.0502 228.165 88.3809 228.4C88.7222 228.624 89.1435 228.736 89.6449 228.736C90.1249 228.736 90.5462 228.683 90.9089 228.576C91.2715 228.469 91.6129 228.331 91.9329 228.16V229.632C91.6235 229.813 91.2875 229.947 90.9249 230.032C90.5622 230.117 90.1195 230.16 89.5969 230.16ZM95.6646 221.088C95.6646 221.355 95.654 221.621 95.6326 221.888C95.6113 222.155 95.59 222.373 95.5686 222.544H95.6806C95.862 222.245 96.086 222 96.3526 221.808C96.63 221.616 96.934 221.472 97.2646 221.376C97.606 221.28 97.9526 221.232 98.3046 221.232C98.9873 221.232 99.558 221.344 100.017 221.568C100.486 221.781 100.838 222.123 101.073 222.592C101.318 223.051 101.441 223.648 101.441 224.384V230H99.7606V224.624C99.7606 223.952 99.6166 223.451 99.3286 223.12C99.0513 222.779 98.6033 222.608 97.9846 222.608C97.398 222.608 96.934 222.725 96.5926 222.96C96.262 223.195 96.022 223.541 95.8726 224C95.734 224.448 95.6646 225.003 95.6646 225.664V230H93.9686V217.84H95.6646V221.088ZM108.415 221.216C109.417 221.216 110.185 221.467 110.719 221.968C111.252 222.469 111.519 223.275 111.519 224.384V230H109.839V224.624C109.839 223.952 109.695 223.451 109.407 223.12C109.129 222.779 108.681 222.608 108.063 222.608C107.188 222.608 106.58 222.869 106.239 223.392C105.908 223.915 105.743 224.667 105.743 225.648V230H104.047V221.376H105.391L105.631 222.528H105.727C105.919 222.229 106.153 221.984 106.431 221.792C106.708 221.6 107.017 221.456 107.359 221.36C107.7 221.264 108.052 221.216 108.415 221.216ZM121.725 225.68C121.725 226.395 121.629 227.029 121.437 227.584C121.245 228.139 120.973 228.608 120.621 228.992C120.269 229.376 119.842 229.669 119.341 229.872C118.84 230.064 118.274 230.16 117.645 230.16C117.069 230.16 116.536 230.064 116.045 229.872C115.554 229.669 115.128 229.376 114.765 228.992C114.413 228.608 114.136 228.139 113.933 227.584C113.73 227.029 113.629 226.389 113.629 225.664C113.629 224.715 113.789 223.909 114.109 223.248C114.44 222.587 114.909 222.085 115.517 221.744C116.136 221.392 116.861 221.216 117.693 221.216C118.482 221.216 119.176 221.392 119.773 221.744C120.381 222.085 120.856 222.587 121.197 223.248C121.549 223.909 121.725 224.72 121.725 225.68ZM115.373 225.68C115.373 226.32 115.453 226.875 115.613 227.344C115.773 227.803 116.024 228.155 116.365 228.4C116.706 228.645 117.144 228.768 117.677 228.768C118.21 228.768 118.648 228.645 118.989 228.4C119.33 228.155 119.581 227.803 119.741 227.344C119.901 226.875 119.981 226.32 119.981 225.68C119.981 225.019 119.896 224.464 119.725 224.016C119.565 223.568 119.314 223.227 118.973 222.992C118.642 222.747 118.205 222.624 117.661 222.624C116.861 222.624 116.28 222.891 115.917 223.424C115.554 223.957 115.373 224.709 115.373 225.68ZM125.571 230H123.875V217.84H125.571V230ZM135.834 225.68C135.834 226.395 135.738 227.029 135.546 227.584C135.354 228.139 135.082 228.608 134.73 228.992C134.378 229.376 133.952 229.669 133.45 229.872C132.949 230.064 132.384 230.16 131.754 230.16C131.178 230.16 130.645 230.064 130.154 229.872C129.664 229.669 129.237 229.376 128.874 228.992C128.522 228.608 128.245 228.139 128.042 227.584C127.84 227.029 127.738 226.389 127.738 225.664C127.738 224.715 127.898 223.909 128.218 223.248C128.549 222.587 129.018 222.085 129.626 221.744C130.245 221.392 130.97 221.216 131.802 221.216C132.592 221.216 133.285 221.392 133.882 221.744C134.49 222.085 134.965 222.587 135.306 223.248C135.658 223.909 135.834 224.72 135.834 225.68ZM129.482 225.68C129.482 226.32 129.562 226.875 129.722 227.344C129.882 227.803 130.133 228.155 130.474 228.4C130.816 228.645 131.253 228.768 131.786 228.768C132.32 228.768 132.757 228.645 133.098 228.4C133.44 228.155 133.69 227.803 133.85 227.344C134.01 226.875 134.09 226.32 134.09 225.68C134.09 225.019 134.005 224.464 133.834 224.016C133.674 223.568 133.424 223.227 133.082 222.992C132.752 222.747 132.314 222.624 131.77 222.624C130.97 222.624 130.389 222.891 130.026 223.424C129.664 223.957 129.482 224.709 129.482 225.68ZM140.96 221.216C141.515 221.216 142.016 221.323 142.464 221.536C142.912 221.749 143.291 222.075 143.6 222.512H143.68L143.872 221.376H145.248V230.112C145.248 230.923 145.104 231.605 144.816 232.16C144.528 232.715 144.086 233.131 143.488 233.408C142.902 233.696 142.16 233.84 141.264 233.84C140.646 233.84 140.075 233.797 139.552 233.712C139.03 233.627 138.55 233.493 138.112 233.312V231.824C138.422 231.973 138.747 232.096 139.088 232.192C139.43 232.299 139.792 232.373 140.176 232.416C140.56 232.469 140.955 232.496 141.36 232.496C142.064 232.496 142.608 232.293 142.992 231.888C143.376 231.493 143.568 230.933 143.568 230.208V229.92C143.568 229.781 143.574 229.6 143.584 229.376C143.595 229.141 143.606 228.971 143.616 228.864H143.552C143.254 229.312 142.886 229.643 142.448 229.856C142.022 230.059 141.526 230.16 140.96 230.16C139.872 230.16 139.019 229.771 138.4 228.992C137.792 228.203 137.488 227.109 137.488 225.712C137.488 224.773 137.627 223.973 137.904 223.312C138.182 222.64 138.576 222.123 139.088 221.76C139.611 221.397 140.235 221.216 140.96 221.216ZM141.312 222.624C140.864 222.624 140.486 222.747 140.176 222.992C139.867 223.227 139.632 223.573 139.472 224.032C139.312 224.491 139.232 225.056 139.232 225.728C139.232 226.731 139.408 227.493 139.76 228.016C140.123 228.539 140.651 228.8 141.344 228.8C141.75 228.8 142.091 228.747 142.368 228.64C142.656 228.533 142.891 228.368 143.072 228.144C143.264 227.92 143.403 227.637 143.488 227.296C143.584 226.944 143.632 226.523 143.632 226.032V225.712C143.632 224.976 143.547 224.384 143.376 223.936C143.216 223.477 142.966 223.147 142.624 222.944C142.283 222.731 141.846 222.624 141.312 222.624ZM146.594 221.376H148.418L150.21 226.272C150.306 226.517 150.391 226.757 150.466 226.992C150.541 227.227 150.605 227.461 150.658 227.696C150.722 227.92 150.77 228.144 150.802 228.368H150.866C150.919 228.091 151.005 227.765 151.122 227.392C151.239 227.008 151.362 226.629 151.49 226.256L153.186 221.376H155.01L151.314 231.168C151.111 231.723 150.861 232.197 150.562 232.592C150.263 232.997 149.906 233.307 149.49 233.52C149.085 233.733 148.605 233.84 148.05 233.84C147.783 233.84 147.554 233.824 147.362 233.792C147.17 233.771 147.005 233.744 146.866 233.712V232.368C146.983 232.389 147.122 232.411 147.282 232.432C147.453 232.453 147.629 232.464 147.81 232.464C148.141 232.464 148.423 232.4 148.658 232.272C148.903 232.144 149.106 231.963 149.266 231.728C149.437 231.493 149.581 231.227 149.698 230.928L150.05 230L146.594 221.376ZM159.188 221.376H161.012L162.804 226.272C162.9 226.517 162.985 226.757 163.06 226.992C163.135 227.227 163.199 227.461 163.252 227.696C163.316 227.92 163.364 228.144 163.396 228.368H163.46C163.513 228.091 163.599 227.765 163.716 227.392C163.833 227.008 163.956 226.629 164.084 226.256L165.78 221.376H167.604L163.908 231.168C163.705 231.723 163.455 232.197 163.156 232.592C162.857 232.997 162.5 233.307 162.084 233.52C161.679 233.733 161.199 233.84 160.644 233.84C160.377 233.84 160.148 233.824 159.956 233.792C159.764 233.771 159.599 233.744 159.46 233.712V232.368C159.577 232.389 159.716 232.411 159.876 232.432C160.047 232.453 160.223 232.464 160.404 232.464C160.735 232.464 161.017 232.4 161.252 232.272C161.497 232.144 161.7 231.963 161.86 231.728C162.031 231.493 162.175 231.227 162.292 230.928L162.644 230L159.188 221.376ZM176.537 225.68C176.537 226.395 176.441 227.029 176.249 227.584C176.057 228.139 175.785 228.608 175.433 228.992C175.081 229.376 174.655 229.669 174.153 229.872C173.652 230.064 173.087 230.16 172.457 230.16C171.881 230.16 171.348 230.064 170.857 229.872C170.367 229.669 169.94 229.376 169.577 228.992C169.225 228.608 168.948 228.139 168.745 227.584C168.543 227.029 168.441 226.389 168.441 225.664C168.441 224.715 168.601 223.909 168.921 223.248C169.252 222.587 169.721 222.085 170.329 221.744C170.948 221.392 171.673 221.216 172.505 221.216C173.295 221.216 173.988 221.392 174.585 221.744C175.193 222.085 175.668 222.587 176.009 223.248C176.361 223.909 176.537 224.72 176.537 225.68ZM170.185 225.68C170.185 226.32 170.265 226.875 170.425 227.344C170.585 227.803 170.836 228.155 171.177 228.4C171.519 228.645 171.956 228.768 172.489 228.768C173.023 228.768 173.46 228.645 173.801 228.4C174.143 228.155 174.393 227.803 174.553 227.344C174.713 226.875 174.793 226.32 174.793 225.68C174.793 225.019 174.708 224.464 174.537 224.016C174.377 223.568 174.127 223.227 173.785 222.992C173.455 222.747 173.017 222.624 172.473 222.624C171.673 222.624 171.092 222.891 170.729 223.424C170.367 223.957 170.185 224.709 170.185 225.68ZM186.111 221.376V230H184.751L184.511 228.864H184.431C184.25 229.163 184.015 229.408 183.727 229.6C183.439 229.792 183.125 229.931 182.783 230.016C182.442 230.112 182.09 230.16 181.727 230.16C181.055 230.16 180.485 230.053 180.015 229.84C179.557 229.616 179.205 229.275 178.959 228.816C178.725 228.347 178.607 227.749 178.607 227.024V221.376H180.319V226.768C180.319 227.44 180.458 227.941 180.735 228.272C181.023 228.603 181.466 228.768 182.063 228.768C182.661 228.768 183.13 228.651 183.471 228.416C183.813 228.181 184.053 227.84 184.191 227.392C184.341 226.933 184.415 226.384 184.415 225.744V221.376H186.111ZM198.746 225.68C198.692 225.467 198.628 225.232 198.554 224.976C198.49 224.72 198.426 224.464 198.362 224.208C198.298 223.941 198.239 223.696 198.186 223.472C198.132 223.248 198.09 223.072 198.058 222.944H197.994C197.972 223.072 197.935 223.248 197.882 223.472C197.839 223.696 197.786 223.941 197.722 224.208C197.658 224.464 197.594 224.725 197.53 224.992C197.466 225.248 197.396 225.483 197.322 225.696L196.042 229.984H194.154L191.77 221.36H193.498L194.618 225.728C194.703 226.027 194.778 226.341 194.842 226.672C194.916 227.003 194.98 227.323 195.034 227.632C195.098 227.931 195.14 228.181 195.162 228.384H195.226C195.247 228.245 195.279 228.075 195.322 227.872C195.364 227.659 195.407 227.44 195.45 227.216C195.503 226.981 195.551 226.757 195.594 226.544C195.647 226.331 195.7 226.155 195.754 226.016L197.13 221.36H198.986L200.33 226.016C200.394 226.229 200.463 226.485 200.538 226.784C200.612 227.072 200.676 227.36 200.73 227.648C200.794 227.925 200.836 228.165 200.858 228.368H200.922C200.943 228.187 200.98 227.952 201.034 227.664C201.087 227.365 201.151 227.045 201.226 226.704C201.311 226.363 201.391 226.037 201.466 225.728L202.618 221.36H204.33L201.914 229.984H199.978L198.746 225.68ZM209.172 221.216C210.26 221.216 211.071 221.456 211.604 221.936C212.137 222.405 212.404 223.147 212.404 224.16V230H211.204L210.868 228.8H210.804C210.559 229.109 210.303 229.365 210.036 229.568C209.78 229.771 209.481 229.92 209.14 230.016C208.809 230.112 208.404 230.16 207.924 230.16C207.412 230.16 206.948 230.069 206.532 229.888C206.127 229.696 205.807 229.408 205.572 229.024C205.337 228.629 205.22 228.139 205.22 227.552C205.22 226.677 205.551 226.011 206.212 225.552C206.884 225.093 207.903 224.843 209.268 224.8L210.74 224.752V224.272C210.74 223.632 210.596 223.184 210.308 222.928C210.02 222.672 209.615 222.544 209.092 222.544C208.644 222.544 208.217 222.608 207.812 222.736C207.407 222.864 207.023 223.019 206.66 223.2L206.116 221.968C206.521 221.755 206.985 221.579 207.508 221.44C208.041 221.291 208.596 221.216 209.172 221.216ZM209.572 225.888C208.591 225.931 207.908 226.096 207.524 226.384C207.151 226.661 206.964 227.056 206.964 227.568C206.964 228.016 207.097 228.341 207.364 228.544C207.641 228.747 207.988 228.848 208.404 228.848C209.076 228.848 209.631 228.661 210.068 228.288C210.505 227.915 210.724 227.355 210.724 226.608V225.856L209.572 225.888ZM219.384 221.216C220.386 221.216 221.154 221.467 221.688 221.968C222.221 222.469 222.488 223.275 222.488 224.384V230H220.808V224.624C220.808 223.952 220.664 223.451 220.376 223.12C220.098 222.779 219.65 222.608 219.032 222.608C218.157 222.608 217.549 222.869 217.208 223.392C216.877 223.915 216.712 224.667 216.712 225.648V230H215.016V221.376H216.36L216.6 222.528H216.696C216.888 222.229 217.122 221.984 217.4 221.792C217.677 221.6 217.986 221.456 218.328 221.36C218.669 221.264 219.021 221.216 219.384 221.216ZM228.198 228.784C228.422 228.784 228.651 228.763 228.886 228.72C229.12 228.677 229.323 228.629 229.494 228.576V229.856C229.312 229.941 229.067 230.011 228.758 230.064C228.448 230.128 228.139 230.16 227.83 230.16C227.36 230.16 226.928 230.08 226.534 229.92C226.15 229.76 225.84 229.483 225.606 229.088C225.371 228.693 225.254 228.144 225.254 227.44V222.672H224.054V221.904L225.318 221.264L225.91 219.44H226.95V221.376H229.414V222.672H226.95V227.408C226.95 227.877 227.062 228.224 227.286 228.448C227.52 228.672 227.824 228.784 228.198 228.784ZM230.979 229.056C230.979 228.64 231.085 228.347 231.299 228.176C231.512 228.005 231.768 227.92 232.067 227.92C232.376 227.92 232.637 228.005 232.851 228.176C233.064 228.347 233.171 228.64 233.171 229.056C233.171 229.472 233.064 229.771 232.851 229.952C232.637 230.133 232.376 230.224 232.067 230.224C231.768 230.224 231.512 230.133 231.299 229.952C231.085 229.771 230.979 229.472 230.979 229.056Z" fill="white" fill-opacity="0.6"/>
</svg>
